<svg xmlns="http://www.w3.org/2000/svg" width="30" height="30" fill="none"><path stroke="#12A121" stroke-linecap="round" stroke-linejoin="round" stroke-width="1.5" d="M23.25 3.75v11.285m-5.5-5.643h11"/><path fill="#12A121" fill-rule="evenodd" d="M6.75 27.125c.868 0 1.571-.722 1.571-1.612S7.618 23.9 6.75 23.9s-1.571.722-1.571 1.612.703 1.612 1.571 1.612m9.429.001c.867 0 1.57-.722 1.57-1.612s-.703-1.612-1.57-1.612-1.572.722-1.572 1.612.704 1.612 1.572 1.612" clip-rule="evenodd"/><path stroke="#12A121" stroke-linecap="round" stroke-linejoin="round" stroke-width="1.5" d="M4.92 13.422h13.616l-1.32 6.763a1.58 1.58 0 0 1-1.572 1.298H7.34c-.794.007-1.468-.595-1.571-1.403l-1.194-9.285c-.103-.802-.768-1.402-1.556-1.403H1.25"/></svg>