<svg xmlns="http://www.w3.org/2000/svg" width="21" height="24" fill="none"><path fill="#F62D59" d="m18.161 21.37.723-15.343h1.17A.936.936 0 0 0 21 5.079a.933.933 0 0 0-.946-.937h-4.721V2.694c0-1.64-1.127-2.694-2.946-2.694H8.591C6.784 0 5.657 1.054 5.657 2.694v1.448H.947a.942.942 0 1 0 0 1.885h1.18l.712 15.343C2.924 23.02 3.966 24 5.625 24h9.772c1.637 0 2.69-.99 2.764-2.63M7.656 2.79c.01-.586.436-1.001 1.063-1.001h3.551c.628 0 1.064.415 1.064 1l.01 1.353H7.656zM5.837 22.094c-.584 0-1.01-.437-1.042-1.065L4.083 6.027h12.813l-.68 15.002c-.033.64-.447 1.065-1.054 1.065zm7.805-1.746c.393 0 .68-.33.702-.777l.319-10.914c.01-.448-.298-.788-.691-.788-.383 0-.702.351-.713.777l-.319 10.903c-.01.448.287.799.702.799m-6.273 0c.404 0 .712-.351.701-.799L7.751 8.646c-.02-.426-.34-.777-.712-.777-.404 0-.702.34-.691.788l.319 10.914c.01.447.308.777.702.777m3.136 0c.383 0 .713-.351.713-.777V8.645c0-.426-.32-.777-.713-.777s-.712.351-.712.777V19.57c0 .427.319.778.712.778"/></svg>