<svg xmlns="http://www.w3.org/2000/svg" width="32" height="32" version="1.0" viewBox="0 0 752 752"><path d="M286.5 170c-93.2 10.6-156.8 89.4-137.6 170.5 3.8 15.7 12 33.5 21.6 47l5.2 7.2-3.3 4.6c-1.8 2.5-5.8 6.4-8.8 8.6-6.5 4.9-9.3 8.2-10.6 13-1.7 6.7 1 13.7 7.4 18.6 2.8 2.1 5.2 2.8 13.3 3.7 15.3 1.7 33.7-.9 47.9-6.6 3.9-1.6 4.2-1.6 10 1 6.8 3 18.7 7.4 19.1 7.1.8-.9 2.3-28.2 1.5-28.5-.5-.1-6.7-3.2-13.7-6.7l-12.9-6.4-5.5 3.3c-7.1 4.3-12.1 6.4-19.4 8.1l-5.7 1.3 2.6-4.1c2.9-4.8 5.5-10.5 8-17.5l1.8-5-5.2-5.7c-15.4-16.8-25.1-36.5-28.3-57.5-1.6-10.4-.6-28.5 2-39 2.8-10.7 11.3-28.4 18.2-37.5 18.6-24.8 47.3-42.2 81.9-49.6 8.8-1.9 13.5-2.3 29.5-2.3s20.7.4 29.5 2.3c28.3 6.1 52.4 18.6 70.4 36.6 8.1 8.1 18.8 22.6 21.5 29.2l1.3 3.3H459l-2-5c-12.6-32-42.4-62.7-76-78.3-12.6-5.9-29.1-11.1-43.1-13.7-13-2.4-38.7-3.4-51.4-2"/><path d="M421.5 297.2c-55.9 6.3-106.1 39.3-128.4 84.3-10.2 20.4-13.6 35.1-13.6 58 0 22.5 3.5 37.7 13 56.7 38.8 77.9 144 109.5 229.2 68.8l10.3-4.9 7.5 3.5c13.4 6.2 20.9 7.7 39.1 7.8 17 .1 19.4-.5 19.4-4.5 0-1.1-1.2-2.9-2.7-4.1-8.6-6.9-17-16.8-21-24.6l-4.2-8.2 6.3-7.9c19.8-24.5 30-52.6 29.9-82.6-.1-14.6-1.1-22.3-4.9-35.1-9.1-31.4-30-59.2-59.4-78.9-33.9-22.7-78.1-33.1-120.5-28.3m39.7 80.7c7 2.4 13.6 6.8 17.7 11.8 6.3 7.6 9.2 20.6 7.1 30.9-2.4 11.6-7 17.7-19.7 26.3-5.7 3.9-7 5.4-8.6 9.6-4.1 10.9-2.5 10-17.7 10h-13.5l.1-5.7c.2-7.6 3.7-13.4 12.2-20.1 10.7-8.4 16.6-14.7 18-19.3 2.8-9.4.2-18.8-6.1-21.7-8-3.8-16.9-1.2-20.7 6.2-1.1 2.2-2.9 4.5-3.9 5.1-2.5 1.3-20.2 1.3-23.7 0-2.6-1-2.7-1.3-2.1-7 1.2-13.7 11.5-23.8 28.1-27.6 8.4-1.9 25.3-1.2 32.8 1.5m-8.6 104.5c.9 1.3 1.4 4.7 1.4 10 0 11.3-.4 11.6-14.5 11.6-14.5 0-14.9-.3-15.3-10.9-.4-7.5-.3-8.1 2.2-10.6 2.6-2.6 2.9-2.7 13.7-2.3 9.6.3 11.3.6 12.5 2.2"/></svg>