<svg xmlns="http://www.w3.org/2000/svg" width="102" height="36" fill="none"><path fill="#fff" d="M8.394 16.625H0V.68h8.054q2.223 0 3.63 1.047 1.43 1.026 1.43 3.03 0 1.162-.636 1.937-.658.797-1.27 1.093 1.043.205 2.019 1.367.998 1.14.998 2.848 0 2.073-1.61 3.348-1.612 1.276-4.22 1.276m-3.516-6.584v2.643H7.44q.659 0 1.044-.342.408-.364.408-.957 0-.591-.408-.956-.408-.387-1.044-.388zm0-5.558v2.141H7.35q.499 0 .816-.296a.93.93 0 0 0 .34-.729q0-.501-.34-.797-.317-.32-.816-.32zm21.661 5.899 4.65 6.242h-5.988l-3.835-5.695h-.518v5.695h-5.04V.68h7.668q2.723 0 4.333 1.457 1.635 1.436 1.634 3.668 0 1.504-.772 2.711-.771 1.185-2.132 1.868m-5.854-3.03h2.224q.68 0 1.089-.341.43-.365.43-.957T24 5.12q-.408-.342-1.09-.342h-2.223zm15.54 9.271H31.19L37.724.587h4.65l6.557 16.038h-5.24l-1.135-2.984h-5.173zM39.97 6.192l-1.18 3.781h2.338zm14.842 10.433h-4.674V.68h4.152l6.08 7.7V.68h4.628v15.946h-4.016l-6.17-7.745zm18.323 0h-6.693V.68h6.693q3.879 0 6.375 2.232 2.472 2.21 2.473 5.74 0 3.532-2.473 5.742-2.496 2.232-6.375 2.232M71.32 4.893v7.518h1.497q1.997 0 3.063-.957 1.066-.98 1.066-2.802t-1.066-2.78q-1.066-.979-3.063-.979zM20.85 35.412h-5.041V16.625h5.04v8.73l4.353-5.98h5.957l-5.728 7.445 6.828 8.592H26.21l-5.36-6.92z"/><path fill="#fff" d="M37.045 35.412H31.96l6.598-16.13h4.697l6.621 16.13h-5.292l-1.146-3.001h-5.223zm3.78-10.493-1.191 3.803h2.36zm20.187 4.215 3.535 6.278H60.05l-4.262-5.728h-.687v5.728h-4.926V19.374h7.744q2.75 0 4.376 1.467 1.65 1.443 1.65 3.688 0 1.512-.78 2.727-.777 1.191-2.153 1.878m-5.91-3.047h2.244q.688 0 1.1-.343.435-.367.435-.963t-.435-.939q-.412-.344-1.1-.344h-2.245zm16.106 9.325h-4.766V19.374h4.88l3.505 5.705 3.529-5.705h4.857v16.038h-4.72v-8.981l-2.268 3.826h-2.658l-2.36-3.826zm17.962 0h-5.086l6.598-16.13h4.697L102 35.413h-5.292l-1.146-3.001h-5.224zm3.78-10.493-1.191 3.803h2.36z"/></svg>