<svg xmlns="http://www.w3.org/2000/svg" width="70" height="70" fill="none"><path fill="#12A221" fill-rule="evenodd" d="M65.444 4.556C60.888 0 53.554 0 38.889 0H31.11C16.445 0 9.112 0 4.556 4.556S0 16.446 0 31.111v7.778c0 14.666 0 21.999 4.556 26.555S16.446 70 31.111 70h7.778c14.666 0 21.999 0 26.555-4.556S70 53.554 70 38.889V31.11c0-14.666 0-21.999-4.556-26.555m-4.64 4.64c-.856-.855-2.212-1.65-5.72-2.123-3.698-.497-8.677-.51-16.195-.51H31.11c-7.518 0-12.497.013-16.194.51-3.508.472-4.865 1.268-5.72 2.123m0 0c-.856.856-1.652 2.213-2.124 5.72-.497 3.698-.51 8.677-.51 16.195v7.778c0 7.518.013 12.497.51 16.194.472 3.509 1.268 4.865 2.123 5.72.856.856 2.213 1.652 5.72 2.124 3.698.497 8.677.51 16.195.51h7.778c7.518 0 12.497-.013 16.194-.51 3.509-.472 4.865-1.268 5.72-2.123.856-.856 1.652-2.212 2.124-5.72.497-3.698.51-8.677.51-16.195V31.11c0-7.518-.013-12.497-.51-16.194-.472-3.508-1.268-4.865-2.124-5.72" clip-rule="evenodd"/><path fill="#12A221" fill-rule="evenodd" d="m54.688 42.35-.058-.059c-1.095-1.12-2.04-2.084-2.885-2.81-.891-.768-1.861-1.442-3.057-1.81a8.27 8.27 0 0 0-4.874 0c-1.196.368-2.167 1.042-3.058 1.81-.844.726-1.79 1.69-2.885 2.81l-.08.082c-.863.881-1.371 1.395-1.765 1.728l-.057.047-.036-.065c-.244-.458-.529-1.128-1.01-2.274l-.15-.358-.062-.148c-1.001-2.386-1.842-4.388-2.674-5.898-.857-1.556-1.925-3.014-3.59-3.866a8.3 8.3 0 0 0-4.491-.884c-1.856.16-3.378 1.11-4.74 2.229-1.14.937-2.42 2.212-3.904 3.723v4.06c0 1.485.001 2.83.01 4.053l3.132-3.199c1.938-1.979 3.233-3.295 4.289-4.163 1.043-.857 1.492-.962 1.686-.979a2.76 2.76 0 0 1 1.497.294c.174.09.552.357 1.209 1.549.665 1.206 1.388 2.919 2.468 5.492l.15.358.046.109c.419.998.808 1.925 1.196 2.653.407.761.998 1.674 1.994 2.303a5.53 5.53 0 0 0 3.933.773c1.153-.206 2.033-.83 2.689-1.382.624-.528 1.323-1.242 2.075-2.01l.082-.084c1.199-1.224 1.975-2.012 2.613-2.562.611-.526.9-.654 1.057-.703a2.76 2.76 0 0 1 1.625 0c.157.049.446.177 1.057.703.639.55 1.414 1.338 2.613 2.562l3.798 3.879c.13-2.062.153-4.625.157-7.964" clip-rule="evenodd"/><path fill="#12A221" d="M49.219 28.438a5.469 5.469 0 1 0 0-10.938 5.469 5.469 0 0 0 0 10.938"/></svg>