<svg xmlns="http://www.w3.org/2000/svg" width="32" height="40" fill="none"><path fill="#282828" d="M8.647 33.91A12.22 12.22 0 0 0 19.197 40c6.72 0 12.185-5.466 12.185-12.184v-9.54a3.107 3.107 0 0 0-3.103-3.104c-.682 0-1.312.221-1.825.595a3.11 3.11 0 0 0-3.003-2.319c-.72 0-1.385.247-1.912.66a3.11 3.11 0 0 0-2.916-2.039c-.637 0-1.23.193-1.724.524V6.552a3.107 3.107 0 0 0-3.103-3.104 3.107 3.107 0 0 0-3.104 3.104v16.453a.55.55 0 0 1-.315.495.543.543 0 0 1-.703-.222l-2.07-3.584a4.49 4.49 0 0 0-6.123-1.64c-.4.23-.684.601-.804 1.046a1.7 1.7 0 0 0 .173 1.308zM2.01 19.456a.34.34 0 0 1 .16-.21 3.1 3.1 0 0 1 2.355-.31c.801.215 1.47.729 1.885 1.447l2.07 3.584a1.915 1.915 0 0 0 2.479.783c.676-.315 1.113-1 1.113-1.746V6.552c0-.951.773-1.724 1.724-1.724.95 0 1.724.773 1.724 1.724V19.31a.69.69 0 1 0 1.38 0v-4.138c0-.95.773-1.724 1.724-1.724.95 0 1.724.774 1.724 1.724v4.138a.69.69 0 0 0 1.38 0v-2.758c0-.951.773-1.724 1.723-1.724s1.724.773 1.724 1.724v3.103a.69.69 0 0 0 1.38 0v-1.38a1.725 1.725 0 0 1 3.448.001v9.54c0 5.958-4.847 10.805-10.805 10.805-3.847 0-7.433-2.07-9.357-5.402l-7.797-13.5a.34.34 0 0 1-.034-.262"/><path fill="#12A221" d="M18.494 10.125a.69.69 0 0 0 .945-.243 6.55 6.55 0 0 0 .909-3.33A6.56 6.56 0 0 0 13.796 0a6.56 6.56 0 0 0-6.552 6.552c0 1.169.312 2.317.902 3.32a.69.69 0 1 0 1.189-.7 5.17 5.17 0 0 1-.712-2.62 5.18 5.18 0 0 1 5.173-5.173 5.18 5.18 0 0 1 5.172 5.173c0 .926-.248 1.835-.716 2.628a.69.69 0 0 0 .242.945m7.371 2.289a.69.69 0 0 0 .69-.69v-9.37l2.098 2.1a.69.69 0 0 0 .976 0 .69.69 0 0 0 0-.976L26.353.202a.69.69 0 0 0-.976 0l-3.276 3.276a.69.69 0 0 0 .976.975l2.098-2.098v9.37c0 .38.309.689.69.689"/></svg>