<svg xmlns="http://www.w3.org/2000/svg" width="130" height="130" fill="none"><path fill="#12A121" d="M65 0 9 32.5c2.358 68.545 38.807 93.068 56 97.5zm0 0 56 32.5c-2.358 68.545-38.807 93.068-56 97.5z"/><path fill="#fff" d="M54.1 66.125H43.75V46h9.803q2.847 0 4.543 1.351 1.725 1.323 1.725 3.738 0 1.38-.69 2.415-.66 1.035-1.668 1.495 1.496.344 2.645 1.754 1.18 1.437 1.18 3.593 0 2.589-1.985 4.198-1.926 1.581-5.203 1.581m-5.175-8.596v4.284h4.168q1.18 0 1.84-.547.69-.575.69-1.58 0-1.008-.69-1.582t-1.84-.575zm0-7.331v3.507h3.852q.95 0 1.495-.46.575-.46.575-1.265 0-.834-.575-1.294-.546-.488-1.495-.488zm22.394 16.33q-4.659 0-7.792-2.157v-5.29q1.208 1.122 3.45 1.955 2.157.806 4.14.806 3.077 0 3.077-1.582 0-.632-.777-1.179-.172-.143-1.293-.517l-1.812-.546-1.466-.432-1.323-.517q-.89-.344-1.322-.633-1.553-1.15-1.955-1.84a6.3 6.3 0 0 1-.719-2.96q0-2.876 2.099-4.457 2.127-1.581 5.808-1.581t6.813 1.667v4.974q-1.35-.834-3.19-1.38-1.898-.575-3.566-.575-2.645 0-2.645 1.322 0 .575.834.92l.92.317q.315.114 1.351.402a65 65 0 0 1 1.409.403q2.874.948 4.542 2.386 1.64 1.409 1.64 4.025 0 2.933-2.3 4.715-2.273 1.754-5.923 1.754m16.466-.403H82.61V46h5.175z"/></svg>