<svg xmlns="http://www.w3.org/2000/svg" width="70" height="60" fill="none"><path fill="#12A221" d="M47.454 17.31c3.613 0 6.67-2.296 7.851-5.447h12.02C68.75 11.863 70 10.63 70 9.088s-1.25-2.74-2.675-2.74h-12.02C54.16 3.162 51.067.833 47.455.833c-3.614 0-6.74 2.33-7.887 5.515H2.78C1.216 6.348 0 7.547 0 9.088a2.753 2.753 0 0 0 2.78 2.775h36.823c1.146 3.151 4.238 5.446 7.851 5.446m0-4.214c-2.293 0-4.064-1.781-4.064-4.042 0-2.26 1.771-4.008 4.064-4.008s4.065 1.747 4.065 4.008c0 2.26-1.772 4.042-4.065 4.042M2.64 27.243c-1.424 0-2.64 1.233-2.64 2.774s1.216 2.74 2.64 2.74h12.437a8.33 8.33 0 0 0 7.851 5.515c3.613 0 6.705-2.295 7.886-5.515h36.372c1.563 0 2.814-1.199 2.814-2.74s-1.25-2.774-2.814-2.774H30.78c-1.146-3.152-4.238-5.447-7.851-5.447s-6.705 2.295-7.851 5.447zm20.288 6.782c-2.258 0-4.065-1.782-4.065-4.008 0-2.26 1.807-4.008 4.065-4.008 2.293 0 4.065 1.747 4.065 4.008 0 2.226-1.772 4.008-4.065 4.008m24.526 25.142c3.613 0 6.705-2.295 7.851-5.48h12.02c1.424 0 2.675-1.2 2.675-2.741s-1.25-2.775-2.675-2.775h-12.02c-1.146-3.185-4.238-5.446-7.85-5.446-3.614 0-6.706 2.26-7.852 5.446H2.779A2.753 2.753 0 0 0 0 50.946c0 1.541 1.216 2.74 2.78 2.74h36.788a8.43 8.43 0 0 0 7.886 5.48m0-4.214c-2.293 0-4.064-1.78-4.064-4.007 0-2.295 1.771-4.008 4.064-4.008s4.065 1.713 4.065 4.008c0 2.226-1.772 4.007-4.065 4.007"/></svg>