<svg xmlns="http://www.w3.org/2000/svg" width="20" height="20" fill="none"><mask id="a" fill="#fff"><path fill-rule="evenodd" d="M4.476 15.245c1.332 2.2 3.163 3.785 5.443 4.71a.6.6 0 0 0 .468 0c2.278-.924 4.108-2.506 5.438-4.703 1.297-2.14 2.129-4.886 2.474-8.161a.625.625 0 0 0-.587-.69 2.51 2.51 0 0 1-2.203-3.39.625.625 0 0 0-.325-.79L10.41.056a.62.62 0 0 0-.516 0l-4.962 2.25a.625.625 0 0 0-.33.773 2.512 2.512 0 0 1-2.054 3.307.626.626 0 0 0-.546.685c.346 3.281 1.176 6.031 2.473 8.174" clip-rule="evenodd"/></mask><path fill="#282828" d="m4.476 15.245-1.283.777zm5.443 4.71.568-1.389-.005-.002zm.233.045.002-1.5h-.004zm.235-.046-.563-1.39zm5.438-4.702-1.283-.778v.001zm2.474-8.161-1.491-.16v.003zm-.344-.626.664-1.345zm-.243-.064L17.625 7.9h.008zm-2.203-3.39-1.402-.533-.001.003zm-.325-.79.62-1.366zM10.41.056l-.62 1.366zm-.516 0 .62 1.366zm-4.962 2.25L4.313.939 4.31.941zm-.33.773 1.418-.487-.001-.005zM2.549 6.386l.185 1.488h.007zm-.546.685-1.492.152v.005zm1.19 8.951c1.491 2.464 3.569 4.27 6.162 5.322l1.127-2.78c-1.965-.797-3.55-2.158-4.723-4.095zm6.158 5.32c.255.105.528.158.804.158l-.005-3q.175 0 .337.066zm.8.158c.274 0 .546-.053.8-.156l-1.128-2.78a.9.9 0 0 1 .331-.064zm.8-.156c2.592-1.05 4.668-2.855 6.157-5.315l-2.566-1.554c-1.17 1.934-2.754 3.293-4.718 4.09zm6.157-5.315c1.441-2.378 2.322-5.352 2.683-8.78l-2.983-.315c-.33 3.122-1.114 5.64-2.266 7.54zM19.79 7.25c.03-.287.002-.577-.083-.853l-2.866.886a.9.9 0 0 1-.034-.352zm-.083-.853a2.1 2.1 0 0 0-.413-.75l-2.283 1.946a.9.9 0 0 1-.17-.31zm-.413-.75a2.1 2.1 0 0 0-.676-.527L17.29 7.81a.9.9 0 0 1-.279-.217zm-.676-.527a2.1 2.1 0 0 0-.829-.217L17.633 7.9a.9.9 0 0 1-.342-.09zm-.821-.216a1 1 0 0 1-.449-.135l-1.506 2.594c.544.316 1.154.5 1.782.536zm-.449-.135a1 1 0 0 1-.339-.323l-2.516 1.635c.343.527.805.967 1.349 1.282zm-.339-.323a1 1 0 0 1-.157-.44l-2.982.322a4 4 0 0 0 .624 1.753zm-.157-.44a1 1 0 0 1 .06-.465l-2.807-1.06a4 4 0 0 0-.235 1.847zm.058-.461a2.13 2.13 0 0 0-.02-1.564l-2.775 1.141a.88.88 0 0 1-.009-.644zm-.02-1.564A2.13 2.13 0 0 0 15.804.855l-1.242 2.731a.88.88 0 0 1-.447-.464zM15.803.854 11.03-1.31 9.79 1.422l4.773 2.165zM11.03-1.31a2.1 2.1 0 0 0-.878-.19v3a.9.9 0 0 1-.361-.078zm-.878-.19c-.303 0-.602.065-.878.19l1.24 2.732a.9.9 0 0 1-.362.078zm-.877.19L4.314.94l1.239 2.732 4.962-2.25zM4.31.94a2.12 2.12 0 0 0-1.07 1.098l2.758 1.179a.88.88 0 0 1-.441.452zm-1.07 1.1a2.13 2.13 0 0 0-.054 1.532l2.834-.984a.88.88 0 0 1-.022.631zm-.056 1.527c.049.142.065.293.048.442l2.981.337a4 4 0 0 0-.192-1.753zm.048.442a1 1 0 0 1-.146.42l2.549 1.583a4 4 0 0 0 .578-1.666zm-.146.42q-.12.194-.312.317l1.624 2.523c.5-.322.923-.751 1.237-1.257zm-.312.317a1 1 0 0 1-.418.153l.385 2.975a4 4 0 0 0 1.657-.605zm-.41.152a2.13 2.13 0 0 0-1.401.786L3.31 7.55a.87.87 0 0 1-.576.323zm-1.401.786a2.13 2.13 0 0 0-.452 1.54l2.984-.305a.87.87 0 0 1-.185.633zM.51 7.228c.362 3.433 1.24 6.412 2.682 8.794l2.566-1.553c-1.152-1.904-1.935-4.426-2.264-7.555z" mask="url(#a)"/><path fill="#282828" d="m12 12.987-.109.57Q10.566 15 9.513 15q-.872 0-.872-.927 0-.313.14-1.031l.417-2.136q.17-.91.17-1.21 0-.516-.394-.515-.272 0-.974.214l.073-.38 2.959-.982-.46 1.964-.593 3.033q-.14.711-.14.908 0 .4.358.4.6 0 1.803-1.351"/><circle cx="10" cy="5" r="1" fill="#282828"/></svg>