<?xml version="1.0" encoding="UTF-8"?>
<!-- Generator: Adobe Illustrator 21.0.0, SVG Export Plug-In . SVG Version: 6.00 Build 0)  -->
<svg version="1.1" id="Layer_1" xmlns="http://www.w3.org/2000/svg" xmlns:xlink="http://www.w3.org/1999/xlink" x="0px" y="0px" viewBox="0 0 280 170" style="enable-background:new 0 0 280 170;" xml:space="preserve">
<style type="text/css">
	.st0{fill-rule:evenodd;clip-rule:evenodd;fill:#FBFCFD;}
	.st1{fill-rule:evenodd;clip-rule:evenodd;fill:#F5F7FA;}
	.st2{fill:#ADB8C1;}
</style>
<path class="st0" d="M140,7.3c42.9,0,77.7,34.8,77.7,77.7s-34.8,77.7-77.7,77.7c-42.9,0-77.7-34.8-77.7-77.7S97.1,7.3,140,7.3z"/>
<path class="st1" d="M140,30.6c30,0,54.3,24.4,54.3,54.4S170,139.4,140,139.4S85.7,115,85.7,85S110,30.6,140,30.6z"/>
<path class="st2" d="M139.8,42.6c-0.2,0-0.4-0.1-0.5-0.2l-14.5-14.5c-0.3-0.3-0.3-0.8,0-1.1s0.8-0.3,1.1,0l14.5,14.5  c0.3,0.3,0.3,0.8,0,1.1C140.2,42.5,140,42.6,139.8,42.6z"/>
<path class="st2" d="M211.7,102.3c-0.4,0-0.8-0.3-0.8-0.8v-59h-55c-0.4,0-0.8-0.3-0.8-0.8s0.3-0.8,0.8-0.8h55.8  c0.4,0,0.8,0.3,0.8,0.8v59.7C212.5,102,212.1,102.3,211.7,102.3z"/>
<path class="st2" d="M182.8,134.1H67.9c-0.4,0-0.8-0.3-0.8-0.8V41.9c0-0.4,0.3-0.8,0.8-0.8h71.9c0.4,0,0.8,0.3,0.8,0.8  s-0.3,0.8-0.8,0.8H68.7v90h114.1c0.4,0,0.8,0.3,0.8,0.8S183.2,134.1,182.8,134.1z"/>
<path class="st2" d="M165.6,146.2h-50.8c-0.4,0-0.8-0.3-0.8-0.8s0.3-0.8,0.8-0.8h50.8c0.4,0,0.8,0.3,0.8,0.8S166,146.2,165.6,146.2z  "/>
<path class="st2" d="M140.2,146.2c-0.4,0-0.8-0.3-0.8-0.8v-12.1c0-0.4,0.3-0.8,0.8-0.8s0.8,0.3,0.8,0.8v12.1  C140.9,145.9,140.6,146.2,140.2,146.2z"/>
<path class="st2" d="M139.8,42.6c-0.2,0-0.4-0.1-0.5-0.2c-0.3-0.3-0.3-0.8,0-1.1l20.4-20.4c0.3-0.3,0.8-0.3,1.1,0s0.3,0.8,0,1.1  l-20.4,20.4C140.2,42.5,140,42.6,139.8,42.6z"/>
<g>
	<path class="st2" d="M124.1,102.3c-0.4,0-0.8-0.3-0.8-0.8V75.5c0-0.4,0.3-0.8,0.8-0.8s0.8,0.3,0.8,0.8v26.1   C124.9,102,124.5,102.3,124.1,102.3z"/>
	<path class="st2" d="M155.2,102.3h-0.8c-0.3,0-0.6-0.2-0.7-0.4l-11.8-26.1c-0.2-0.4,0-0.8,0.4-1c0.4-0.2,0.8,0,1,0.4l11.5,25.4   l11.5-25.4c0.2-0.4,0.6-0.5,1-0.4c0.4,0.2,0.5,0.6,0.4,1l-11.8,26.1C155.8,102.2,155.5,102.3,155.2,102.3z"/>
	<path class="st2" d="M135.6,76.3h-22.9c-0.4,0-0.8-0.3-0.8-0.8s0.3-0.8,0.8-0.8h22.9c0.4,0,0.8,0.3,0.8,0.8S136,76.3,135.6,76.3z"/>
</g>
<g>
	<polygon class="st2" points="249.6,136.8 246.2,140.2 243.2,143.1 238.6,132.1  "/>
	<rect x="248.2" y="139" transform="matrix(0.707 -0.7072 0.7072 0.707 -27.7119 217.5169)" class="st2" width="1" height="6.4"/>
</g>
<path class="st2" d="M213.8,154.2c-1.8,0-3.6-0.2-5.4-0.5c-1.7-0.3-3.4-0.9-5-1.6c-1.6-0.7-3.1-1.5-4.5-2.5c-1.4-1-2.7-2.1-4-3.3  c-1.2-1.2-2.3-2.5-3.3-3.9c-1-1.4-1.8-3-2.5-4.5c-0.2-0.4,0-0.8,0.4-1c0.4-0.2,0.8,0,1,0.4c0.6,1.5,1.4,2.9,2.3,4.3  c0.9,1.3,1.9,2.6,3.1,3.7c1.1,1.1,2.4,2.2,3.7,3.1c1.3,0.9,2.8,1.7,4.3,2.3c1.5,0.6,3.1,1.1,4.7,1.5c3.3,0.7,6.8,0.7,10.2,0  c1.6-0.3,3.2-0.8,4.7-1.5c1.5-0.6,2.9-1.4,4.3-2.3c1.3-0.9,2.6-1.9,3.7-3.1c1.1-1.1,2.2-2.4,3.1-3.7c0.9-1.3,1.7-2.8,2.3-4.3  c0.2-0.4,0.6-0.6,1-0.4c0.4,0.2,0.6,0.6,0.4,1c-0.7,1.6-1.5,3.1-2.5,4.5c-1,1.4-2,2.7-3.3,3.9c-1.2,1.2-2.5,2.3-3.9,3.3  c-1.4,1-2.9,1.8-4.5,2.5c-1.6,0.7-3.3,1.2-5,1.6C217.4,154,215.6,154.2,213.8,154.2z"/>
<path class="st2" d="M237.7,118.2c-0.3,0-0.6-0.2-0.7-0.5c-0.6-1.5-1.4-2.9-2.3-4.3c-0.9-1.3-1.9-2.6-3.1-3.7s-2.4-2.2-3.7-3.1  c-1.3-0.9-2.8-1.7-4.3-2.3c-1.5-0.6-3.1-1.1-4.7-1.5c-3.3-0.7-6.8-0.7-10.2,0c-1.6,0.3-3.2,0.8-4.7,1.5c-1.5,0.6-2.9,1.4-4.3,2.3  c-1.3,0.9-2.6,1.9-3.7,3.1c-1.1,1.1-2.2,2.4-3.1,3.7c-0.9,1.3-1.7,2.8-2.3,4.3c-0.2,0.4-0.6,0.6-1,0.4c-0.4-0.2-0.6-0.6-0.4-1  c0.7-1.6,1.5-3.1,2.5-4.5c1-1.4,2.1-2.7,3.3-3.9c1.2-1.2,2.5-2.3,4-3.3c1.4-1,2.9-1.8,4.5-2.5c1.6-0.7,3.3-1.2,5-1.6  c3.5-0.7,7.2-0.7,10.8,0c1.7,0.4,3.4,0.9,5,1.6c1.6,0.7,3.1,1.5,4.5,2.5c1.4,1,2.7,2,3.9,3.3c1.2,1.2,2.3,2.5,3.3,3.9  c1,1.4,1.8,3,2.5,4.5c0.2,0.4,0,0.8-0.4,1C237.9,118.2,237.8,118.2,237.7,118.2z"/>
<rect x="193.9" y="110.4" class="st2" width="39.8" height="1"/>
<rect x="194" y="143.7" class="st2" width="39.7" height="1"/>
<path class="st2" d="M241.1,138.4h-54.6c-2.1,0-3.8-1.7-3.8-3.8v-14.2c0-2.1,1.7-3.8,3.8-3.8h54.6c2.1,0,3.8,1.7,3.8,3.8v14.2  C244.8,136.7,243.2,138.4,241.1,138.4z M186.5,118.2c-1.2,0-2.2,1-2.2,2.2v14.2c0,1.2,1,2.2,2.2,2.2h54.6c1.2,0,2.2-1,2.2-2.2v-14.2  c0-1.2-1-2.2-2.2-2.2H186.5z"/>
<path class="st2" d="M213.8,154c-5.1,0-9.6-6.4-11.5-16.2l1-0.2c1.8,9.4,6,15.4,10.5,15.4c4.6,0,8.7-6.1,10.5-15.4l1,0.2  C223.4,147.6,218.9,154,213.8,154z"/>
<path class="st2" d="M224.3,117.5c-1.8-9.4-6-15.4-10.5-15.4c-4.6,0-8.7,6.1-10.5,15.4l-1-0.2c1.9-9.9,6.4-16.2,11.5-16.2  s9.6,6.4,11.5,16.2L224.3,117.5z"/>
<g>
	<path class="st2" d="M231.5,133.3c-0.2,0-0.4-0.1-0.5-0.4l-2.4-8.4l-2.4,8.4c-0.1,0.4-0.8,0.4-1,0l-2.9-10.1   c-0.1-0.3,0.1-0.5,0.3-0.6c0.3-0.1,0.5,0.1,0.6,0.3l2.4,8.4l2.4-8.4c0.1-0.4,0.8-0.4,1,0l2.4,8.4l2.4-8.4c0.1-0.3,0.4-0.4,0.6-0.3   c0.3,0.1,0.4,0.4,0.3,0.6l-2.9,10.1C231.9,133.2,231.7,133.3,231.5,133.3z"/>
	<path class="st2" d="M216.7,133.3L216.7,133.3c-0.2,0-0.4-0.1-0.5-0.4l-2.4-8.4l-2.4,8.4c-0.1,0.2-0.3,0.4-0.5,0.4l0,0   c-0.2,0-0.4-0.1-0.5-0.4l-2.9-10.1c-0.1-0.3,0.1-0.5,0.3-0.6c0.3-0.1,0.5,0.1,0.6,0.3l2.4,8.4l2.4-8.4c0.1-0.2,0.3-0.4,0.5-0.4l0,0   c0.2,0,0.4,0.1,0.5,0.4l2.4,8.4l2.4-8.4c0.1-0.3,0.4-0.4,0.6-0.3c0.3,0.1,0.4,0.4,0.3,0.6l-2.9,10.1   C217.1,133.2,216.9,133.3,216.7,133.3z"/>
	<path class="st2" d="M201.9,133.3c-0.2,0-0.4-0.1-0.5-0.4l-2.4-8.4l-2.4,8.4c-0.1,0.4-0.8,0.4-1,0l-2.9-10.1   c-0.1-0.3,0.1-0.5,0.3-0.6c0.3-0.1,0.5,0.1,0.6,0.3l2.4,8.4l2.4-8.4c0.1-0.4,0.8-0.4,1,0l2.4,8.4l2.4-8.4c0.1-0.3,0.3-0.4,0.6-0.3   c0.3,0.1,0.4,0.4,0.3,0.6l-2.9,10.1C202.3,133.2,202.1,133.3,201.9,133.3z"/>
</g>
</svg>