<svg width="30" height="30" viewBox="0 0 30 30" fill="none" xmlns="http://www.w3.org/2000/svg">
<path d="M23.2499 3.75V15.0345" stroke="#12A121" stroke-width="1.5" stroke-linecap="round" stroke-linejoin="round"></path>
<path d="M17.75 9.39226H28.75" stroke="#12A121" stroke-width="1.5" stroke-linecap="round" stroke-linejoin="round"></path>
<path fill-rule="evenodd" clip-rule="evenodd" d="M6.75002 27.125C7.6179 27.125 8.32145 26.4032 8.32145 25.5129C8.32145 24.6226 7.6179 23.9008 6.75002 23.9008C5.88214 23.9008 5.17859 24.6226 5.17859 25.5129C5.17859 26.4032 5.88214 27.125 6.75002 27.125Z" fill="#12A121"></path>
<path fill-rule="evenodd" clip-rule="evenodd" d="M16.1785 27.125C17.0464 27.125 17.7499 26.4032 17.7499 25.5129C17.7499 24.6226 17.0464 23.9008 16.1785 23.9008C15.3106 23.9008 14.6071 24.6226 14.6071 25.5129C14.6071 26.4032 15.3106 27.125 16.1785 27.125Z" fill="#12A121"></path>
<path d="M4.91929 13.4224H18.5357L17.2157 20.185C17.0674 20.951 16.4054 21.4977 15.6443 21.4828H7.33929C6.54531 21.4897 5.87105 20.8879 5.76786 20.0803L4.57358 10.7948C4.47114 9.99323 3.80586 9.39348 3.01786 9.39226H1.25" stroke="#12A121" stroke-width="1.5" stroke-linecap="round" stroke-linejoin="round"></path>
</svg>
