<svg xmlns="http://www.w3.org/2000/svg" width="32" height="32" fill="none"><path fill="#12A221" d="M13.4 30.664c1.776 1.788 3.424 1.774 5.2 0l2.17-2.156a.93.93 0 0 1 .719-.295h3.044c2.522 0 3.692-1.155 3.692-3.69V21.48c0-.296.085-.494.296-.719l2.142-2.17c1.79-1.774 1.776-3.408 0-5.197l-2.142-2.17a.92.92 0 0 1-.296-.703V7.464c0-2.507-1.155-3.69-3.692-3.69h-3.044c-.296 0-.507-.071-.719-.282L18.6 1.336c-1.776-1.789-3.424-1.774-5.2 0l-2.17 2.156c-.212.21-.423.281-.719.281H7.467c-2.522 0-3.692 1.155-3.692 3.69v3.058c0 .281-.07.492-.282.704l-2.156 2.17c-1.79 1.788-1.776 3.422 0 5.197l2.156 2.17a.93.93 0 0 1 .282.718v3.042c0 2.522 1.17 3.69 3.692 3.69h3.044c.296 0 .507.085.719.296zm1.578-1.578-2.649-2.662c-.31-.324-.634-.451-1.071-.451h-3.79c-1.255 0-1.452-.197-1.452-1.45v-3.79c0-.423-.127-.747-.437-1.056l-2.664-2.649c-.887-.901-.887-1.155 0-2.056l2.664-2.649c.31-.31.437-.633.437-1.07v-3.79c0-1.267.183-1.45 1.451-1.45h3.791c.437 0 .76-.113 1.071-.437l2.65-2.662c.901-.887 1.155-.887 2.043 0l2.663 2.662c.296.324.634.437 1.057.437h3.79c1.255 0 1.452.197 1.452 1.45v3.79c0 .437.141.76.451 1.07l2.664 2.649c.888.901.888 1.155 0 2.056l-2.664 2.649c-.31.31-.45.633-.45 1.056v3.79c0 1.253-.198 1.45-1.452 1.45h-3.791c-.423 0-.76.127-1.057.45l-2.663 2.663c-.888.887-1.142.887-2.044 0"/><path fill="#12A221" d="M12.91 22.808c.439.533.863.768 1.396.768s.972-.25 1.318-.768l7.984-12.565c.188-.314.392-.69.392-1.035C24 8.455 23.341 8 22.651 8c-.424 0-.831.235-1.13.722l-7.294 11.686-3.749-4.847c-.36-.486-.753-.659-1.192-.659-.706 0-1.286.565-1.286 1.302 0 .345.141.721.376 1.02z"/></svg>