<svg width="32" height="32" viewBox="0 0 32 32" fill="none" xmlns="http://www.w3.org/2000/svg">
<path d="M13.4 30.6636C15.1756 32.4525 16.8244 32.4384 18.6 30.6636L20.7702 28.5084C20.9816 28.2971 21.193 28.2126 21.4889 28.2126H24.5329C27.0554 28.2126 28.225 27.0576 28.225 24.5221V21.4795C28.225 21.1837 28.3096 20.9865 28.521 20.7611L30.663 18.5918C32.4527 16.817 32.4386 15.183 30.663 13.3941L28.521 11.2248C28.3096 11.0135 28.225 10.8022 28.225 10.5205V7.46385C28.225 4.95653 27.0695 3.77331 24.5329 3.77331H21.4889C21.193 3.77331 20.9816 3.70288 20.7702 3.49159L18.6 1.33642C16.8244 -0.452509 15.1756 -0.438423 13.4 1.33642L11.2298 3.49159C11.0184 3.70288 10.807 3.77331 10.5111 3.77331H7.46714C4.94463 3.77331 3.77497 4.92836 3.77497 7.46385V10.5205C3.77497 10.8022 3.70451 11.0135 3.49312 11.2248L1.33701 13.3941C-0.452708 15.183 -0.438616 16.817 1.33701 18.5918L3.49312 20.7611C3.70451 20.9865 3.77497 21.1837 3.77497 21.4795V24.5221C3.77497 27.0435 4.94463 28.2126 7.46714 28.2126H10.5111C10.807 28.2126 11.0184 28.2971 11.2298 28.5084L13.4 30.6636ZM14.9783 29.0859L12.329 26.4237C12.0189 26.0997 11.6948 25.9729 11.258 25.9729H7.46714C6.21293 25.9729 6.01564 25.7757 6.01564 24.5221V20.7329C6.01564 20.3103 5.88881 19.9864 5.57878 19.6765L2.91534 17.0283C2.02753 16.1268 2.02753 15.8732 2.91534 14.9717L5.57878 12.3235C5.88881 12.0136 6.01564 11.6897 6.01564 11.253V7.46385C6.01564 6.19611 6.19884 6.01299 7.46714 6.01299H11.258C11.6948 6.01299 12.0189 5.9003 12.329 5.57632L14.9783 2.91406C15.8802 2.02664 16.1339 2.02664 17.0217 2.91406L19.6851 5.57632C19.9811 5.9003 20.3193 6.01299 20.742 6.01299H24.5329C25.7871 6.01299 25.9844 6.21019 25.9844 7.46385V11.253C25.9844 11.6897 26.1253 12.0136 26.4353 12.3235L29.0988 14.9717C29.9866 15.8732 29.9866 16.1268 29.0988 17.0283L26.4353 19.6765C26.1253 19.9864 25.9844 20.3103 25.9844 20.7329V24.5221C25.9844 25.7757 25.7871 25.9729 24.5329 25.9729H20.742C20.3193 25.9729 19.9811 26.0997 19.6851 26.4237L17.0217 29.0859C16.1339 29.9734 15.8802 29.9734 14.9783 29.0859Z" fill="#12A221"></path>
<path d="M12.9098 22.8078C13.349 23.3412 13.7725 23.5765 14.3059 23.5765C14.8392 23.5765 15.2784 23.3255 15.6235 22.8078L23.6078 10.2431C23.7961 9.92941 24 9.55294 24 9.20784C24 8.4549 23.3412 8 22.651 8C22.2275 8 21.8196 8.23529 21.5216 8.72157L14.2275 20.4078L10.4784 15.5608C10.1176 15.0745 9.72549 14.902 9.28627 14.902C8.58039 14.902 8 15.4667 8 16.2039C8 16.549 8.14118 16.9255 8.37647 17.2235L12.9098 22.8078Z" fill="#12A221"></path>
</svg>
