<svg width="21" height="24" viewBox="0 0 21 24" fill="none" xmlns="http://www.w3.org/2000/svg">
<path d="M18.161 21.37L18.8841 6.02662H20.0537C20.5853 6.02662 21 5.61136 21 5.07897C21 4.55723 20.5853 4.14197 20.0537 4.14197H15.3327V2.69388C15.3327 1.05413 14.2056 0 12.3873 0H8.59139C6.7838 0 5.65671 1.05413 5.65671 2.69388V4.14197H0.946329C0.425316 4.14197 0 4.55723 0 5.07897C0 5.61136 0.425316 6.02662 0.946329 6.02662H2.12658L2.83899 21.37C2.92405 23.0204 3.96608 24 5.62481 24H15.3965C17.0339 24 18.0866 23.0098 18.161 21.37ZM7.6557 2.78971C7.66633 2.20408 8.09165 1.78882 8.71899 1.78882H12.2704C12.8977 1.78882 13.3337 2.20408 13.3337 2.78971L13.3443 4.14197H7.6557V2.78971ZM5.83747 22.0941C5.25266 22.0941 4.82734 21.6575 4.79544 21.0293L4.08304 6.02662H16.8957L16.2152 21.0293C16.1833 21.6681 15.7686 22.0941 15.1625 22.0941H5.83747ZM13.642 20.3478C14.0354 20.3478 14.3225 20.0177 14.3438 19.5705L14.6628 8.65661C14.6734 8.20941 14.3651 7.86868 13.9716 7.86868C13.5889 7.86868 13.2699 8.22005 13.2592 8.64596L12.9403 19.5492C12.9296 19.9965 13.2273 20.3478 13.642 20.3478ZM7.36861 20.3478C7.77266 20.3478 8.08101 19.9965 8.07038 19.5492L7.75139 8.64596C7.73013 8.22005 7.41114 7.86868 7.03899 7.86868C6.63494 7.86868 6.33722 8.20941 6.34785 8.65661L6.66684 19.5705C6.67747 20.0177 6.97519 20.3478 7.36861 20.3478ZM10.5053 20.3478C10.8881 20.3478 11.2177 19.9965 11.2177 19.5705V8.64596C11.2177 8.22005 10.8987 7.86868 10.5053 7.86868C10.1119 7.86868 9.79291 8.22005 9.79291 8.64596V19.5705C9.79291 19.9965 10.1119 20.3478 10.5053 20.3478Z" fill="#F62D59"></path>
</svg>
