<svg width="100" height="100" viewBox="0 0 100 100" fill="none" xmlns="http://www.w3.org/2000/svg">
<path d="M50 0L7 25C8.81052 77.7273 36.7982 96.5909 50 100V0Z" fill="#12A121"></path>
<path d="M50 0L93 25C91.1895 77.7273 63.2018 96.5909 50 100V0Z" fill="#12A121"></path>
<path fill-rule="evenodd" clip-rule="evenodd" d="M93.8159 27.956C93.9511 26.6685 93.3881 25.4046 92.3636 24.6884C91.3392 23.9748 90.0237 23.9297 88.9637 24.5729C80.4811 29.7246 50.8083 47.7413 41.6947 53.2739C40.5697 53.9548 39.9411 55.2826 40.0921 56.6486C40.243 58.0146 41.1434 59.1603 42.3881 59.5598C46.0629 60.739 50.5539 62.185 57.5963 64.4493L84.5733 35.6173L63.0144 66.1905C70.5242 68.605 82.2667 72.3805 85.2133 73.3274C86.1353 73.6254 87.1347 73.4715 87.9377 72.9136C88.7406 72.3531 89.2651 71.4432 89.3722 70.4273L93.8159 27.956Z" fill="white"></path>
<path fill-rule="evenodd" clip-rule="evenodd" d="M59.8525 67.9952L60.1854 76.8298C60.2365 78.1861 61.0343 79.387 62.2194 79.897C63.4072 80.4096 64.7618 80.1367 65.6831 79.1984L72.6565 72.1123L59.8525 67.9952Z" fill="white"></path>
</svg>
