<svg xmlns="http://www.w3.org/2000/svg" width="100" height="100" fill="none"><path fill="#12A121" d="M50 0 7 25c1.81 52.727 29.798 71.59 43 75zM50 0l43 25c-1.81 52.727-29.798 71.59-43 75z"/><path fill="#fff" fill-rule="evenodd" d="M93.816 27.956c.135-1.287-.428-2.551-1.452-3.268a3.1 3.1 0 0 0-3.4-.115c-8.483 5.152-38.156 23.168-47.27 28.7-1.124.682-1.753 2.01-1.602 3.376s1.051 2.511 2.296 2.91c3.675 1.18 8.166 2.626 15.208 4.89l26.977-28.832-21.559 30.574c7.51 2.414 19.253 6.19 22.2 7.136a3.09 3.09 0 0 0 2.724-.413c.803-.56 1.327-1.47 1.434-2.487zM59.853 67.995l.332 8.835c.051 1.356.85 2.557 2.034 3.067 1.188.513 2.543.24 3.464-.699l6.973-7.086z" clip-rule="evenodd"/></svg>