<svg width="70" height="70" viewBox="0 0 70 70" fill="none" xmlns="http://www.w3.org/2000/svg">
<path fill-rule="evenodd" clip-rule="evenodd" d="M29.2475 51.4018C30.814 52.8661 33.3529 52.8661 34.919 51.4018L54.9713 32.6517C56.5374 31.1872 56.5374 28.8128 54.9713 27.3484C53.4052 25.8839 50.8658 25.8839 49.2997 27.3484L32.0834 43.447L14.8671 27.3484C13.3009 25.8839 10.7617 25.8839 9.19551 27.3484C7.62933 28.8128 7.62933 31.1872 9.19551 32.6517L29.2475 51.4018Z" fill="#12A221"></path>
<path fill-rule="evenodd" clip-rule="evenodd" d="M32.0834 52.5C34.4997 52.5 36.4584 50.821 36.4584 48.7499V3.74997C36.4584 1.6789 34.4997 0 32.0834 0C29.6671 0 27.7084 1.6789 27.7084 3.74997V48.7499C27.7084 50.821 29.6671 52.5 32.0834 52.5Z" fill="#12A221"></path>
<path fill-rule="evenodd" clip-rule="evenodd" d="M8.02087 65.6247C8.02087 68.0413 9.55991 70 11.4584 70H52.7083C54.6068 70 56.1459 68.0413 56.1459 65.6247C56.1459 63.2087 54.6068 61.25 52.7083 61.25H11.4584C9.55991 61.25 8.02087 63.2087 8.02087 65.6247Z" fill="#12A221"></path>
</svg>
