<svg xmlns="http://www.w3.org/2000/svg" width="70" height="70" fill="none"><path fill="#12A221" fill-rule="evenodd" d="M29.248 51.402c1.566 1.464 4.105 1.464 5.671 0l20.052-18.75c1.566-1.465 1.566-3.84 0-5.304s-4.105-1.464-5.671 0L32.083 43.447 14.867 27.348c-1.566-1.464-4.105-1.464-5.671 0-1.567 1.465-1.567 3.84 0 5.304z" clip-rule="evenodd"/><path fill="#12A221" fill-rule="evenodd" d="M32.083 52.5c2.417 0 4.375-1.679 4.375-3.75v-45C36.458 1.679 34.5 0 32.083 0s-4.375 1.679-4.375 3.75v45c0 2.071 1.96 3.75 4.375 3.75M8.02 65.625C8.02 68.04 9.56 70 11.459 70h41.25c1.899 0 3.438-1.959 3.438-4.375s-1.54-4.375-3.438-4.375h-41.25c-1.898 0-3.437 1.959-3.437 4.375" clip-rule="evenodd"/></svg>