<?xml version="1.0" standalone="no"?>
<!DOCTYPE svg PUBLIC "-//W3C//DTD SVG 20010904//EN"
  "http://www.w3.org/TR/2001/REC-SVG-20010904/DTD/svg10.dtd">
<svg version="1.0" xmlns="http://www.w3.org/2000/svg" width="32" height="32" viewBox="0 0 752.000000 752.000000" preserveAspectRatio="xMidYMid meet">

  <g transform="translate(0.000000,752.000000) scale(0.100000,-0.100000)" fill="#000000" stroke="none">
    <path d="M2865 5820 c-932 -106 -1568 -894 -1376 -1705 38 -157 120 -335 216
-470 l52 -72 -33 -46 c-18 -25 -58 -64 -88 -86 -65 -49 -93 -82 -106 -130 -17
-67 10 -137 74 -186 28 -21 52 -28 133 -37 153 -17 337 9 479 66 39 16 42 16
100 -10 68 -30 187 -74 191 -71 8 9 23 282 15 285 -5 1 -67 32 -137 67 l-129
64 -55 -33 c-71 -43 -121 -64 -194 -81 l-57 -13 26 41 c29 48 55 105 80 175
l18 50 -52 57 c-154 168 -251 365 -283 575 -16 104 -6 285 20 390 28 107 113
284 182 375 186 248 473 422 819 496 88 19 135 23 295 23 160 0 207 -4 295
-23 283 -61 524 -186 704 -366 81 -81 188 -226 215 -292 l13 -33 154 0 154 0
-20 50 c-126 320 -424 627 -760 783 -126 59 -291 111 -431 137 -130 24 -387
34 -514 20z"></path>
    <path d="M4215 4548 c-559 -63 -1061 -393 -1284 -843 -102 -204 -136 -351
-136 -580 0 -225 35 -377 130 -567 388 -779 1440 -1095 2292 -688 l103 49 75
-35 c134 -62 209 -77 391 -78 170 -1 194 5 194 45 0 11 -12 29 -27 41 -86 69
-170 168 -210 246 l-42 82 63 79 c198 245 300 526 299 826 -1 146 -11 223 -49
351 -91 314 -300 592 -594 789 -339 227 -781 331 -1205 283z m397 -807 c70
-24 136 -68 177 -118 63 -76 92 -206 71 -309 -24 -116 -70 -177 -197 -263 -57
-39 -70 -54 -86 -96 -41 -109 -25 -100 -177 -100 l-135 0 1 57 c2 76 37 134
122 201 107 84 166 147 180 193 28 94 2 188 -61 217 -80 38 -169 12 -207 -62
-11 -22 -29 -45 -39 -51 -25 -13 -202 -13 -237 0 -26 10 -27 13 -21 70 12 137
115 238 281 276 84 19 253 12 328 -15z m-86 -1045 c9 -13 14 -47 14 -100 0
-113 -4 -116 -145 -116 -145 0 -149 3 -153 109 -4 75 -3 81 22 106 26 26 29
27 137 23 96 -3 113 -6 125 -22z"></path>
  </g>
</svg>
