<svg width="102" height="36" viewBox="0 0 102 36" fill="none" xmlns="http://www.w3.org/2000/svg">
<path d="M8.3943 16.6251H0V0.678526H8.05399C9.53623 0.678526 10.7462 1.02783 11.684 1.72645C12.6368 2.40987 13.1133 3.41982 13.1133 4.7563C13.1133 5.53085 12.9015 6.17631 12.478 6.69268C12.0394 7.22423 11.6159 7.58872 11.2075 7.78616C11.9033 7.92284 12.5763 8.37846 13.2267 9.15301C13.8922 9.91237 14.2249 10.8616 14.2249 12.0006C14.2249 13.3827 13.688 14.4989 12.6141 15.3494C11.5403 16.1999 10.1337 16.6251 8.3943 16.6251ZM4.87777 10.0415V12.684H7.44143C7.88005 12.684 8.22792 12.5701 8.48505 12.3423C8.75729 12.0993 8.89342 11.7804 8.89342 11.3855C8.89342 10.9907 8.75729 10.6717 8.48505 10.4287C8.2128 10.1706 7.86493 10.0415 7.44143 10.0415H4.87777ZM4.87777 4.48293V6.62433H7.35068C7.68343 6.62433 7.95568 6.52562 8.16743 6.32818C8.3943 6.13075 8.50773 5.88775 8.50773 5.59919C8.50773 5.26507 8.3943 4.9993 8.16743 4.80186C7.95568 4.58924 7.68343 4.48293 7.35068 4.48293H4.87777Z" fill="white"></path>
<path d="M26.5397 10.3832L31.1895 16.6251H25.2022L21.367 10.9299H20.8491V16.6251H15.8086V0.678526H23.4769C25.2919 0.678526 26.7363 1.16452 27.8102 2.1365C28.8992 3.0933 29.4437 4.31587 29.4437 5.80422C29.4437 6.80658 29.1866 7.71022 28.6723 8.51515C28.1581 9.30488 27.4472 9.92756 26.5397 10.3832ZM20.6864 7.35332H22.9097C23.3635 7.35332 23.7265 7.23942 23.9987 7.01161C24.2861 6.76861 24.4298 6.44968 24.4298 6.05481C24.4298 5.65994 24.2861 5.34861 23.9987 5.1208C23.7265 4.89299 23.3635 4.77908 22.9097 4.77908H20.6864V7.35332Z" fill="white"></path>
<path d="M36.2261 16.6251H31.1895L37.7235 0.587402H42.3744L48.931 16.6251H43.6902L42.5559 13.6408H37.3832L36.2261 16.6251ZM39.9695 6.1915L38.7898 9.97312H41.1266L39.9695 6.1915Z" fill="white"></path>
<path d="M54.8116 16.6251H50.138V0.678526H54.2898L60.37 8.37846V0.678526H64.9982V16.6251H60.9825L54.8116 8.87964V16.6251Z" fill="white"></path>
<path d="M73.1348 16.6251H66.442V0.678526H73.1348C75.7211 0.678526 77.8462 1.4227 79.5099 2.91105C81.1585 4.38422 81.9828 6.29781 81.9828 8.65183C81.9828 11.0059 81.1585 12.9194 79.5099 14.3926C77.8462 15.881 75.7211 16.6251 73.1348 16.6251ZM71.3198 4.89299V12.4107H72.8172C74.1482 12.4107 75.1691 12.0917 75.88 11.4539C76.5908 10.8008 76.9463 9.86681 76.9463 8.65183C76.9463 7.43685 76.5908 6.51043 75.88 5.87256C75.1691 5.21951 74.1482 4.89299 72.8172 4.89299H71.3198Z" fill="white"></path>
<path d="M20.8491 35.412H15.8087V16.625L20.8491 16.625V25.3541L25.2022 19.3743H31.1591L25.4313 26.8204L32.2588 35.412H26.2103L20.8491 28.4929V35.412Z" fill="white"></path>
<path d="M37.0451 35.412H31.9588L38.5572 19.2827H43.254L49.8753 35.412H44.5828L43.4373 32.4107H38.2135L37.0451 35.412ZM40.8254 24.9188L39.634 28.722H41.9939L40.8254 24.9188Z" fill="white"></path>
<path d="M61.0122 29.1344L64.5469 35.412H60.0499L55.7884 29.6843H55.1011V35.412H50.1752V19.3743H57.9192C59.7521 19.3743 61.2107 19.8631 62.2952 20.8406C63.3949 21.8029 63.9448 23.0324 63.9448 24.5293C63.9448 25.5374 63.6851 26.4462 63.1658 27.2557C62.6465 28.05 61.9286 28.6762 61.0122 29.1344ZM55.1011 26.0872H57.3464C57.8046 26.0872 58.1712 25.9727 58.4461 25.7436C58.7363 25.4992 58.8814 25.1784 58.8814 24.7813C58.8814 24.3842 58.7363 24.0711 58.4461 23.842C58.1712 23.6129 57.8046 23.4983 57.3464 23.4983H55.1011V26.0872Z" fill="white"></path>
<path d="M71.2076 35.412H66.4421V19.3743H71.3221L74.8275 25.0792L78.3558 19.3743H83.213V35.412H78.4933V26.4309L76.2251 30.2571H73.5674L71.2076 26.4309V35.412Z" fill="white"></path>
<path d="M89.1698 35.412H84.0836L90.682 19.2827H95.3787L102 35.412H96.7076L95.562 32.4107H90.3383L89.1698 35.412ZM92.9502 24.9188L91.7588 28.722H94.1186L92.9502 24.9188Z" fill="white"></path>
</svg>
