<svg width="70" height="70" viewBox="0 0 70 70" fill="none" xmlns="http://www.w3.org/2000/svg">
<path fill-rule="evenodd" clip-rule="evenodd" d="M65.4438 4.55611C60.8879 0 53.5547 0 38.8889 0H31.1111C16.4452 0 9.11225 0 4.55611 4.55611C0 9.11225 0 16.4452 0 31.1111V38.8889C0 53.5547 0 60.8879 4.55611 65.4438C9.11225 70 16.4452 70 31.1111 70H38.8889C53.5547 70 60.8879 70 65.4438 65.4438C70 60.8879 70 53.5547 70 38.8889V31.1111C70 16.4452 70 9.11225 65.4438 4.55611ZM60.8034 9.19653L60.8032 9.19635C59.948 8.34101 58.5915 7.54518 55.0831 7.07349C51.386 6.57644 46.4073 6.5625 38.8889 6.5625H31.1111C23.5926 6.5625 18.6139 6.57644 14.9169 7.07349C11.4086 7.54516 10.052 8.34096 9.19651 9.19647C9.1965 9.19649 9.19649 9.1965 9.19647 9.19651M9.19647 9.19651C8.34096 10.052 7.54516 11.4086 7.07349 14.9169C6.57644 18.6139 6.5625 23.5926 6.5625 31.1111V38.8889C6.5625 46.4073 6.57644 51.386 7.07349 55.0831C7.54518 58.5915 8.34101 59.948 9.19635 60.8032L9.19653 60.8034C10.0521 61.659 11.4086 62.4548 14.9169 62.9265C18.614 63.4236 23.5926 63.4375 31.1111 63.4375H38.8889C46.4073 63.4375 51.386 63.4236 55.0831 62.9265C58.5915 62.4548 59.9479 61.659 60.8032 60.8036L60.8036 60.8032C61.659 59.9479 62.4548 58.5915 62.9265 55.0831C63.4236 51.386 63.4375 46.4073 63.4375 38.8889V31.1111C63.4375 23.5926 63.4236 18.614 62.9265 14.9169C62.4548 11.4086 61.659 10.0521 60.8034 9.19653" fill="#12A221"></path>
<path fill-rule="evenodd" clip-rule="evenodd" d="M54.6875 42.3494L54.6304 42.2911C53.5346 41.1719 52.5893 40.2066 51.7453 39.4803C50.854 38.7133 49.8836 38.0389 48.6877 37.6705C47.0984 37.1808 45.403 37.1808 43.8136 37.6705C42.6177 38.0389 41.6473 38.7133 40.756 39.4803C39.912 40.2066 38.9667 41.1719 37.8709 42.2911L37.7908 42.3729C36.9276 43.254 36.4196 43.7683 36.0256 44.1012L35.9688 44.1483L35.9333 44.0831C35.6887 43.6248 35.404 42.9545 34.9234 41.8089L34.7729 41.451L34.711 41.3031L34.7107 41.3028C33.7097 38.9175 32.8691 36.9146 32.0371 35.4049C31.1798 33.8495 30.1116 32.3908 28.4466 31.5386C27.0579 30.8277 25.5038 30.5221 23.9558 30.6555C22.0999 30.8154 20.5775 31.7647 19.2159 32.8836C18.0758 33.8207 16.7962 35.0961 15.3125 36.607V40.6679C15.3125 42.1518 15.3133 43.4964 15.3212 44.7204L18.4541 41.5214C20.3924 39.5421 21.6869 38.2262 22.7429 37.3583C23.7861 36.5008 24.2349 36.3957 24.4288 36.379C24.9448 36.3345 25.4628 36.4364 25.9258 36.6734C26.0998 36.7624 26.4782 37.0303 27.1349 38.2219C27.7997 39.4281 28.5229 41.1409 29.6028 43.7138L29.753 44.0716L29.7989 44.181C30.2177 45.179 30.6066 46.1063 30.9951 46.8335C31.402 47.5951 31.9932 48.5081 32.9886 49.137C34.1623 49.8788 35.5621 50.1543 36.9217 49.9104C38.0745 49.704 38.9554 49.0805 39.6105 48.5276C40.2354 47.9998 40.9338 47.2864 41.6856 46.5185H41.6859L41.7683 46.4343C42.967 45.2103 43.7427 44.4217 44.3812 43.8723C44.9923 43.3462 45.2809 43.2178 45.4384 43.1693C45.968 43.0062 46.5333 43.0062 47.0629 43.1693C47.2204 43.2178 47.509 43.3462 48.1202 43.8723C48.7586 44.4217 49.5343 45.2103 50.733 46.4343L54.5311 50.3125C54.6608 48.2511 54.6836 45.6879 54.6875 42.3494Z" fill="#12A221"></path>
<path d="M49.2188 28.4375C52.2391 28.4375 54.6875 25.9891 54.6875 22.9688C54.6875 19.9484 52.2391 17.5 49.2188 17.5C46.1984 17.5 43.75 19.9484 43.75 22.9688C43.75 25.9891 46.1984 28.4375 49.2188 28.4375Z" fill="#12A221"></path>
</svg>
