<svg width="148" height="44" viewBox="0 0 148 44" fill="none" xmlns="http://www.w3.org/2000/svg">
<path d="M53.8943 21.0377H45.5V5.09112H53.554C55.0362 5.09112 56.2462 5.44043 57.184 6.13904C58.1368 6.82247 58.6133 7.83242 58.6133 9.1689C58.6133 9.94345 58.4015 10.5889 57.978 11.1053C57.5394 11.6368 57.1159 12.0013 56.7075 12.1988C57.4033 12.3354 58.0763 12.7911 58.7267 13.5656C59.3922 14.325 59.7249 15.2742 59.7249 16.4132C59.7249 17.7953 59.188 18.9115 58.1141 19.762C57.0403 20.6125 55.6337 21.0377 53.8943 21.0377ZM50.3778 14.4541V17.0966H52.9414C53.3801 17.0966 53.7279 16.9827 53.985 16.7549C54.2573 16.5119 54.3934 16.193 54.3934 15.7981C54.3934 15.4033 54.2573 15.0843 53.985 14.8413C53.7128 14.5832 53.3649 14.4541 52.9414 14.4541H50.3778ZM50.3778 8.89553V11.0369H52.8507C53.1834 11.0369 53.4557 10.9382 53.6674 10.7408C53.8943 10.5433 54.0077 10.3003 54.0077 10.0118C54.0077 9.67767 53.8943 9.4119 53.6674 9.21446C53.4557 9.00184 53.1834 8.89553 52.8507 8.89553H50.3778Z" fill="#12A221"></path>
<path d="M72.0397 14.7958L76.6895 21.0377H70.7022L66.867 15.3425H66.3491V21.0377H61.3086V5.09112H68.9769C70.7919 5.09112 72.2363 5.57712 73.3102 6.5491C74.3992 7.5059 74.9437 8.72847 74.9437 10.2168C74.9437 11.2192 74.6866 12.1228 74.1723 12.9277C73.6581 13.7175 72.9472 14.3402 72.0397 14.7958ZM66.1864 11.7659H68.4097C68.8635 11.7659 69.2265 11.652 69.4987 11.4242C69.7861 11.1812 69.9298 10.8623 69.9298 10.4674C69.9298 10.0725 69.7861 9.7612 69.4987 9.53339C69.2265 9.30559 68.8635 9.19168 68.4097 9.19168H66.1864V11.7659Z" fill="#12A221"></path>
<path d="M81.7261 21.0377H76.6895L83.2235 5H87.8744L94.431 21.0377H89.1902L88.0559 18.0534H82.8832L81.7261 21.0377ZM85.4695 10.6041L84.2898 14.3857H86.6266L85.4695 10.6041Z" fill="#12A221"></path>
<path d="M100.312 21.0377H95.638V5.09112H99.7898L105.87 12.7911V5.09112H110.498V21.0377H106.483L100.312 13.2922V21.0377Z" fill="#12A221"></path>
<path d="M118.635 21.0377H111.942V5.09112H118.635C121.221 5.09112 123.346 5.8353 125.01 7.32365C126.659 8.79681 127.483 10.7104 127.483 13.0644C127.483 15.4185 126.659 17.332 125.01 18.8052C123.346 20.2936 121.221 21.0377 118.635 21.0377ZM116.82 9.30558V16.8233H118.317C119.648 16.8233 120.669 16.5043 121.38 15.8665C122.091 15.2134 122.446 14.2794 122.446 13.0644C122.446 11.8494 122.091 10.923 121.38 10.2852C120.669 9.63211 119.648 9.30558 118.317 9.30558H116.82Z" fill="#12A221"></path>
<path d="M66.349 39.8248H61.3086V21.0377L66.349 21.0377V29.7668L70.7021 23.787H76.659L70.9313 31.2331L77.7588 39.8248H71.7102L66.349 32.9056V39.8248Z" fill="#282828"></path>
<path d="M82.545 39.8248H77.4588L84.0571 23.6954H88.7539L95.3752 39.8248H90.0828L88.9372 36.8234H83.7135L82.545 39.8248ZM86.3253 29.3315L85.134 33.1348H87.4938L86.3253 29.3315Z" fill="#282828"></path>
<path d="M106.512 33.5472L110.047 39.8248H105.55L101.288 34.097H100.601V39.8248H95.6752V23.787H103.419C105.252 23.787 106.711 24.2758 107.795 25.2534C108.895 26.2156 109.445 27.4452 109.445 28.942C109.445 29.9501 109.185 30.8589 108.666 31.6684C108.146 32.4627 107.429 33.0889 106.512 33.5472ZM100.601 30.5H102.846C103.305 30.5 103.671 30.3854 103.946 30.1563C104.236 29.9119 104.381 29.5912 104.381 29.1941C104.381 28.7969 104.236 28.4838 103.946 28.2547C103.671 28.0256 103.305 27.911 102.846 27.911H100.601V30.5Z" fill="#282828"></path>
<path d="M116.708 39.8248H111.942V23.787H116.822L120.327 29.4919L123.856 23.787H128.713V39.8248H123.993V30.8436L121.725 34.6698H119.067L116.708 30.8436V39.8248Z" fill="#282828"></path>
<path d="M134.67 39.8248H129.584L136.182 23.6954H140.879L147.5 39.8248H142.208L141.062 36.8234H135.838L134.67 39.8248ZM138.45 29.3315L137.259 33.1348H139.619L138.45 29.3315Z" fill="#282828"></path>
<path fill-rule="evenodd" clip-rule="evenodd" d="M19.5 0L0.5 11C1.3 34.2 13.6667 42.5 19.5 44C22.9104 43.123 28.554 39.9218 32.8136 32.7776L24.2612 30.1607L21.1522 29.2093L34.0537 11.7315L17.9191 28.2205L14.0479 27.0356L14.0476 27.0355C11.9138 26.3823 10.2752 25.8807 8.84411 25.4436C8.10136 25.2167 7.56493 24.5634 7.47614 23.7836C7.38736 23.0038 7.76396 22.2451 8.43626 21.8552C12.8864 19.2668 25.5388 11.9065 32.7844 7.69099L19.5 0ZM19.4528 35.2869L19.2627 30.2428L26.9031 32.581L22.7328 36.6338C22.1818 37.1705 21.3728 37.3277 20.6641 37.0362C19.9571 36.7461 19.4819 36.0612 19.4528 35.2869Z" fill="#12A221"></path>
</svg>
