<svg width="147" height="44" viewBox="0 0 147 44" fill="none" xmlns="http://www.w3.org/2000/svg">
<path d="M53.3943 21.0377H45V5.09112H53.054C54.5362 5.09112 55.7462 5.44043 56.684 6.13904C57.6368 6.82247 58.1133 7.83242 58.1133 9.1689C58.1133 9.94345 57.9015 10.5889 57.478 11.1053C57.0394 11.6368 56.6159 12.0013 56.2075 12.1988C56.9033 12.3354 57.5763 12.7911 58.2267 13.5656C58.8922 14.325 59.2249 15.2742 59.2249 16.4132C59.2249 17.7953 58.688 18.9115 57.6141 19.762C56.5403 20.6125 55.1337 21.0377 53.3943 21.0377ZM49.8778 14.4541V17.0966H52.4414C52.8801 17.0966 53.2279 16.9827 53.485 16.7549C53.7573 16.5119 53.8934 16.193 53.8934 15.7981C53.8934 15.4033 53.7573 15.0843 53.485 14.8413C53.2128 14.5832 52.8649 14.4541 52.4414 14.4541H49.8778ZM49.8778 8.89553V11.0369H52.3507C52.6834 11.0369 52.9557 10.9382 53.1674 10.7408C53.3943 10.5433 53.5077 10.3003 53.5077 10.0118C53.5077 9.67767 53.3943 9.4119 53.1674 9.21446C52.9557 9.00184 52.6834 8.89553 52.3507 8.89553H49.8778Z" fill="white"></path>
<path d="M71.5397 14.7958L76.1895 21.0377H70.2022L66.367 15.3425H65.8491V21.0377H60.8086V5.09112H68.4769C70.2919 5.09112 71.7363 5.57712 72.8102 6.5491C73.8992 7.5059 74.4437 8.72847 74.4437 10.2168C74.4437 11.2192 74.1866 12.1228 73.6723 12.9277C73.1581 13.7175 72.4472 14.3402 71.5397 14.7958ZM65.6864 11.7659H67.9097C68.3635 11.7659 68.7265 11.652 68.9987 11.4242C69.2861 11.1812 69.4298 10.8623 69.4298 10.4674C69.4298 10.0725 69.2861 9.7612 68.9987 9.53339C68.7265 9.30559 68.3635 9.19168 67.9097 9.19168H65.6864V11.7659Z" fill="white"></path>
<path d="M81.2261 21.0377H76.1895L82.7235 5H87.3744L93.931 21.0377H88.6902L87.5559 18.0534H82.3832L81.2261 21.0377ZM84.9695 10.6041L83.7898 14.3857H86.1266L84.9695 10.6041Z" fill="white"></path>
<path d="M99.8116 21.0377H95.138V5.09112H99.2898L105.37 12.7911V5.09112H109.998V21.0377H105.983L99.8116 13.2922V21.0377Z" fill="white"></path>
<path d="M118.135 21.0377H111.442V5.09112H118.135C120.721 5.09112 122.846 5.8353 124.51 7.32365C126.159 8.79681 126.983 10.7104 126.983 13.0644C126.983 15.4185 126.159 17.332 124.51 18.8052C122.846 20.2936 120.721 21.0377 118.135 21.0377ZM116.32 9.30558V16.8233H117.817C119.148 16.8233 120.169 16.5043 120.88 15.8665C121.591 15.2134 121.946 14.2794 121.946 13.0644C121.946 11.8494 121.591 10.923 120.88 10.2852C120.169 9.63211 119.148 9.30558 117.817 9.30558H116.32Z" fill="white"></path>
<path d="M65.849 39.8248H60.8086V21.0377L65.849 21.0377V29.7668L70.2021 23.787H76.159L70.4313 31.2331L77.2588 39.8248H71.2102L65.849 32.9056V39.8248Z" fill="white"></path>
<path d="M82.045 39.8248H76.9588L83.5571 23.6954H88.2539L94.8752 39.8248H89.5828L88.4372 36.8234H83.2135L82.045 39.8248ZM85.8253 29.3315L84.634 33.1348H86.9938L85.8253 29.3315Z" fill="white"></path>
<path d="M106.012 33.5472L109.547 39.8248H105.05L100.788 34.097H100.101V39.8248H95.1752V23.787H102.919C104.752 23.787 106.211 24.2758 107.295 25.2534C108.395 26.2156 108.945 27.4452 108.945 28.942C108.945 29.9501 108.685 30.8589 108.166 31.6684C107.646 32.4627 106.929 33.0889 106.012 33.5472ZM100.101 30.5H102.346C102.805 30.5 103.171 30.3854 103.446 30.1563C103.736 29.9119 103.881 29.5912 103.881 29.1941C103.881 28.7969 103.736 28.4838 103.446 28.2547C103.171 28.0256 102.805 27.911 102.346 27.911H100.101V30.5Z" fill="white"></path>
<path d="M116.208 39.8248H111.442V23.787H116.322L119.827 29.4919L123.356 23.787H128.213V39.8248H123.493V30.8436L121.225 34.6698H118.567L116.208 30.8436V39.8248Z" fill="white"></path>
<path d="M134.17 39.8248H129.084L135.682 23.6954H140.379L147 39.8248H141.708L140.562 36.8234H135.338L134.17 39.8248ZM137.95 29.3315L136.759 33.1348H139.119L137.95 29.3315Z" fill="white"></path>
<path fill-rule="evenodd" clip-rule="evenodd" d="M19 0L0 11C0.799999 34.2 13.1667 42.5 19 44C22.4104 43.123 28.054 39.9218 32.3136 32.7776L23.7612 30.1607L20.6522 29.2093L33.5537 11.7315L17.4191 28.2205L13.5479 27.0356L13.5476 27.0355C11.4138 26.3823 9.77521 25.8807 8.34411 25.4436C7.60136 25.2167 7.06493 24.5634 6.97614 23.7836C6.88736 23.0038 7.26396 22.2451 7.93626 21.8552C12.3864 19.2668 25.0388 11.9065 32.2844 7.69099L19 0ZM18.9528 35.2869L18.7627 30.2428L26.4031 32.581L22.2328 36.6338C21.6818 37.1705 20.8728 37.3277 20.1641 37.0362C19.4571 36.7461 18.9819 36.0612 18.9528 35.2869Z" fill="white"></path>
</svg>
