<svg xmlns="http://www.w3.org/2000/svg" width="147" height="44" fill="none"><path fill="#fff" d="M53.394 21.038H45V5.09h8.054q2.223 0 3.63 1.048 1.43 1.024 1.43 3.03 0 1.162-.636 1.936-.658.798-1.27 1.094 1.042.204 2.019 1.367.998 1.138.998 2.847 0 2.073-1.61 3.349-1.612 1.276-4.22 1.276m-3.516-6.584v2.643h2.563q.66 0 1.044-.342.408-.364.408-.957 0-.592-.408-.957-.408-.387-1.044-.387zm0-5.558v2.14h2.473q.499 0 .816-.295a.93.93 0 0 0 .34-.73q0-.5-.34-.797-.317-.318-.816-.318zM71.54 14.796l4.65 6.242h-5.988l-3.835-5.696h-.518v5.696h-5.04V5.09h7.668q2.723 0 4.333 1.458 1.635 1.436 1.634 3.668 0 1.504-.772 2.71-.771 1.185-2.132 1.869m-5.854-3.03h2.224q.681 0 1.089-.342.43-.364.43-.957 0-.592-.43-.934-.408-.34-1.09-.341h-2.223z"/><path fill="#fff" d="M81.226 21.038H76.19L82.724 5h4.65l6.557 16.038h-5.24l-1.135-2.985h-5.173zm3.743-10.434-1.18 3.782h2.338zM99.812 21.038h-4.674V5.09h4.152l6.08 7.7v-7.7h4.628v15.947h-4.015l-6.171-7.746zM118.135 21.038h-6.693V5.09h6.693q3.879 0 6.375 2.233 2.473 2.21 2.473 5.74 0 3.532-2.473 5.741-2.496 2.233-6.375 2.233M116.32 9.306v7.517h1.497q1.996 0 3.063-.957 1.066-.98 1.066-2.802t-1.066-2.779q-1.067-.98-3.063-.98zM65.849 39.825h-5.04V21.038h5.04v8.729l4.353-5.98h5.957l-5.728 7.446 6.828 8.592H71.21l-5.361-6.92z"/><path fill="#fff" d="M82.045 39.825h-5.086l6.598-16.13h4.697l6.621 16.13h-5.292l-1.146-3.002h-5.224zm3.78-10.494-1.191 3.804h2.36zM106.012 33.547l3.535 6.278h-4.497l-4.262-5.728h-.687v5.728h-4.926V23.787h7.744q2.75 0 4.376 1.466 1.65 1.444 1.65 3.689 0 1.512-.779 2.726-.78 1.191-2.154 1.88m-5.911-3.047h2.245q.688 0 1.1-.344.435-.366.435-.962 0-.595-.435-.94-.412-.343-1.1-.343h-2.245zM116.208 39.825h-4.766V23.787h4.88l3.505 5.705 3.529-5.705h4.857v16.038h-4.72v-8.981l-2.268 3.826h-2.658l-2.359-3.826zM134.17 39.825h-5.086l6.598-16.13h4.697L147 39.825h-5.292l-1.146-3.002h-5.224zm3.78-10.494-1.191 3.804h2.36z"/><path fill="#fff" fill-rule="evenodd" d="M19 0 0 11c.8 23.2 13.167 31.5 19 33 3.41-.877 9.054-4.078 13.314-11.222L23.76 30.16l-3.109-.952 12.902-17.477L17.419 28.22l-3.871-1.185-5.204-1.592a1.96 1.96 0 0 1-1.368-1.66 1.97 1.97 0 0 1 .96-1.929L32.284 7.691zm-.047 35.287-.19-5.044 7.64 2.338-4.17 4.053a1.91 1.91 0 0 1-2.069.402 1.97 1.97 0 0 1-1.211-1.75" clip-rule="evenodd"/></svg>