<svg width="127" height="130" viewBox="0 0 127 130" fill="none" xmlns="http://www.w3.org/2000/svg">
<rect width="100" height="130" rx="2" fill="#12A120"></rect>
<rect x="23" y="69" width="37" height="6" rx="2" fill="white"></rect>
<rect x="23" y="85" width="37" height="6" rx="2" fill="white"></rect>
<rect x="23" y="101" width="37" height="6" rx="2" fill="white"></rect>
<path d="M27.68 41.564V33.998H34.544V41.564H39.224V23.364H34.544V29.838H27.68V23.364H23V41.564H27.68Z" fill="white"></path>
<path d="M45.4851 45.1V41.564H56.4571V45.1H60.8771V37.456H58.4851V23.364H44.9131V26.64C44.9131 31.606 44.2111 35.22 42.8331 37.456H41.0911V45.1H45.4851ZM47.9291 37.456C48.9691 34.622 49.5151 31.294 49.5671 27.472H53.8051V37.456H47.9291Z" fill="white"></path>
<path d="M72.8629 41.928C74.7089 41.928 76.3729 41.538 77.8549 40.784V36.156C76.5809 37.118 74.9949 37.612 73.0709 37.612C71.4849 37.612 70.1589 37.144 69.0929 36.182C68.0529 35.22 67.5329 33.972 67.5329 32.464C67.5329 30.982 68.0529 29.734 69.0669 28.772C70.0809 27.81 71.3549 27.316 72.8889 27.316C74.5789 27.316 76.1129 27.758 77.5429 28.642V24.04C76.1129 23.338 74.5529 23 72.8369 23C69.9249 23 67.5069 23.884 65.5829 25.652C63.6849 27.42 62.7229 29.682 62.7229 32.464C62.7229 35.246 63.6849 37.508 65.6089 39.276C67.5329 41.044 69.9509 41.928 72.8629 41.928Z" fill="white"></path>
<circle cx="100" cy="88" r="24.5" fill="#12A120" stroke="white" stroke-width="5"></circle>
<path d="M96.318 97.382L107.316 79.182H104.222L93.224 97.382H96.318ZM91.326 80.3C90.442 81.158 90 82.25 90 83.524C90 84.798 90.442 85.89 91.326 86.748C92.21 87.606 93.328 88.048 94.706 88.048C96.084 88.048 97.202 87.606 98.086 86.748C98.97 85.89 99.412 84.798 99.412 83.524C99.412 82.25 98.97 81.158 98.086 80.3C97.202 79.442 96.084 79 94.706 79C93.328 79 92.21 79.442 91.326 80.3ZM93.51 84.798C92.886 84.096 92.886 82.926 93.51 82.276C94.134 81.574 95.278 81.574 95.902 82.276C96.526 82.926 96.526 84.096 95.902 84.798C95.278 85.448 94.134 85.448 93.51 84.798ZM102.428 89.816C101.544 90.674 101.102 91.766 101.102 93.04C101.102 94.314 101.544 95.406 102.428 96.264C103.312 97.122 104.43 97.564 105.808 97.564C107.186 97.564 108.304 97.122 109.188 96.264C110.072 95.406 110.514 94.314 110.514 93.04C110.514 91.766 110.072 90.674 109.188 89.816C108.304 88.958 107.186 88.516 105.808 88.516C104.43 88.516 103.312 88.958 102.428 89.816ZM104.612 94.314C103.988 93.612 103.988 92.442 104.612 91.792C105.236 91.09 106.38 91.09 107.004 91.792C107.628 92.442 107.628 93.612 107.004 94.314C106.38 94.964 105.236 94.964 104.612 94.314Z" fill="white"></path>
</svg>
