<svg xmlns="http://www.w3.org/2000/svg" width="127" height="130" fill="none"><rect width="100" height="130" fill="#12A120" rx="2"/><rect width="37" height="6" x="23" y="69" fill="#fff" rx="2"/><rect width="37" height="6" x="23" y="85" fill="#fff" rx="2"/><rect width="37" height="6" x="23" y="101" fill="#fff" rx="2"/><path fill="#fff" d="M27.68 41.564v-7.566h6.864v7.566h4.68v-18.2h-4.68v6.474H27.68v-6.474H23v18.2zM45.485 45.1v-3.536h10.972V45.1h4.42v-7.644h-2.392V23.364H44.913v3.276c0 4.966-.702 8.58-2.08 10.816h-1.742V45.1zm2.444-7.644q1.56-4.251 1.638-9.984h4.238v9.984zM72.863 41.928c1.846 0 3.51-.39 4.992-1.144v-4.628c-1.274.962-2.86 1.456-4.784 1.456-1.586 0-2.912-.468-3.978-1.43-1.04-.962-1.56-2.21-1.56-3.718 0-1.482.52-2.73 1.534-3.692s2.288-1.456 3.822-1.456c1.69 0 3.224.442 4.654 1.326V24.04c-1.43-.702-2.99-1.04-4.706-1.04q-4.368 0-7.254 2.652c-1.898 1.768-2.86 4.03-2.86 6.812s.962 5.044 2.886 6.812q2.886 2.652 7.254 2.652"/><circle cx="100" cy="88" r="24.5" fill="#12A120" stroke="#fff" stroke-width="5"/><path fill="#fff" d="m96.318 97.382 10.998-18.2h-3.094l-10.998 18.2zM91.326 80.3c-.884.858-1.326 1.95-1.326 3.224s.442 2.366 1.326 3.224 2.002 1.3 3.38 1.3 2.496-.442 3.38-1.3 1.326-1.95 1.326-3.224-.442-2.366-1.326-3.224-2.002-1.3-3.38-1.3-2.496.442-3.38 1.3m2.184 4.498c-.624-.702-.624-1.872 0-2.522.624-.702 1.768-.702 2.392 0 .624.65.624 1.82 0 2.522-.624.65-1.768.65-2.392 0m8.918 5.018c-.884.858-1.326 1.95-1.326 3.224s.442 2.366 1.326 3.224 2.002 1.3 3.38 1.3 2.496-.442 3.38-1.3 1.326-1.95 1.326-3.224-.442-2.366-1.326-3.224-2.002-1.3-3.38-1.3-2.496.442-3.38 1.3m2.184 4.498c-.624-.702-.624-1.872 0-2.522.624-.702 1.768-.702 2.392 0 .624.65.624 1.82 0 2.522-.624.65-1.768.65-2.392 0"/></svg>