<svg width="24" height="80" viewBox="0 0 24 80" fill="none" xmlns="http://www.w3.org/2000/svg">
<path d="M21.6 44.2879C21.6 46.7804 20.5886 49.1708 18.7882 50.9333C16.9879 52.6957 14.5461 53.6859 12 53.6859C9.45392 53.6859 7.01212 52.6957 5.21177 50.9333C3.41143 49.1708 2.4 46.7804 2.4 44.2879V30.1909C2.4 27.6984 3.41143 25.308 5.21177 23.5456C7.01212 21.7831 9.45392 20.793 12 20.793C14.5461 20.793 16.9879 21.7831 18.7882 23.5456C20.5886 25.308 21.6 27.6984 21.6 30.1909V44.2879ZM12 18.4435C8.8174 18.4435 5.76516 19.6812 3.51472 21.8842C1.26428 24.0873 0 27.0753 0 30.1909V44.2879C0 47.4035 1.26428 50.3915 3.51472 52.5946C5.76516 54.7977 8.8174 56.0353 12 56.0353C15.1826 56.0353 18.2348 54.7977 20.4853 52.5946C22.7357 50.3915 24 47.4035 24 44.2879V30.1909C24 27.0753 22.7357 24.0873 20.4853 21.8842C18.2348 19.6812 15.1826 18.4435 12 18.4435Z" fill="#282828"></path>
<path d="M12.8486 25.836C12.6235 25.6157 12.3183 25.4919 12 25.4919C11.6818 25.4919 11.3766 25.6157 11.1515 25.836C10.9265 26.0563 10.8 26.3551 10.8 26.6667V31.3657C10.8 31.6772 10.9265 31.976 11.1515 32.1963C11.3766 32.4167 11.6818 32.5404 12 32.5404C12.3183 32.5404 12.6235 32.4167 12.8486 32.1963C13.0736 31.976 13.2 31.6772 13.2 31.3657V26.6667C13.2 26.3551 13.0736 26.0563 12.8486 25.836Z" fill="#12A221"></path>
<path d="M12.2634 72.0301L16.6914 68.0057C16.8364 67.8739 16.8362 67.6604 16.6907 67.5288C16.5452 67.3973 16.3095 67.3976 16.1644 67.5295L12 71.3143L7.83553 67.5293C7.69041 67.3975 7.45489 67.3971 7.30939 67.5286C7.23645 67.5946 7.19998 67.6811 7.19998 67.7675C7.19998 67.8538 7.23621 67.9399 7.30864 68.0057L11.7365 72.0301C11.8062 72.0936 11.9011 72.1292 12 72.1292C12.0988 72.1292 12.1936 72.0935 12.2634 72.0301Z" fill="#282828"></path>
<path fill-rule="evenodd" clip-rule="evenodd" d="M12.8346 72.6331C12.6036 72.8427 12.3026 72.9515 12 72.9515C11.6985 72.9515 11.3967 72.8436 11.1647 72.6324C11.1646 72.6323 11.1648 72.6326 11.1647 72.6324L6.73712 68.6084C6.49464 68.3879 6.35999 68.0838 6.35999 67.7675C6.35999 67.4503 6.4954 67.1454 6.73928 66.9247C7.20728 66.5017 7.94028 66.5026 8.40695 66.9266L12 70.1922L15.5929 66.9268C16.0596 66.5027 16.7926 66.5016 17.2606 66.9247C17.7652 67.3812 17.7666 68.1504 17.2631 68.6082L12.8346 72.6331ZM12 71.3143L7.83553 67.5293C7.82194 67.517 7.80757 67.5058 7.79255 67.4958C7.79249 67.4957 7.7926 67.4958 7.79255 67.4958C7.64711 67.3987 7.44122 67.4095 7.30939 67.5286C7.23645 67.5946 7.19998 67.6811 7.19998 67.7675C7.19998 67.8538 7.23621 67.9399 7.30864 68.0057L11.7365 72.0301C11.8062 72.0936 11.9011 72.1292 12 72.1292C12.0988 72.1292 12.1936 72.0935 12.2634 72.0301L16.6914 68.0057C16.8364 67.8739 16.8362 67.6604 16.6907 67.5288C16.5589 67.4097 16.3532 67.3987 16.2077 67.4957C16.2077 67.4957 16.2078 67.4956 16.2077 67.4957C16.1926 67.5057 16.178 67.5171 16.1644 67.5295L12 71.3143Z" fill="#282828"></path>
<path d="M12.2634 5.42204L16.6914 1.39771C16.8364 1.26586 16.8362 1.05238 16.6907 0.920752C16.5452 0.789222 16.3095 0.789562 16.1644 0.921432L12 4.70622L7.83553 0.921295C7.69041 0.789443 7.45489 0.789103 7.30939 0.920616C7.23645 0.986601 7.19998 1.07305 7.19998 1.15949C7.19998 1.24572 7.23621 1.33182 7.30864 1.39769L11.7365 5.42204C11.8062 5.48554 11.9011 5.52118 12 5.52118C12.0988 5.52118 12.1936 5.48544 12.2634 5.42204Z" fill="#12A221"></path>
<path fill-rule="evenodd" clip-rule="evenodd" d="M12.8346 6.02502C12.6036 6.23471 12.3026 6.3435 12 6.3435C11.6985 6.3435 11.3967 6.23553 11.1647 6.02441C11.1646 6.02429 11.1648 6.02453 11.1647 6.02441L6.73712 2.00034C6.49464 1.77983 6.35999 1.47572 6.35999 1.1595C6.35999 0.842227 6.4954 0.537329 6.73928 0.316693C7.20728 -0.106313 7.94028 -0.105435 8.40695 0.318557L12 3.58415L15.5929 0.318781C16.0596 -0.105325 16.7926 -0.10647 17.2606 0.316648C17.7652 0.773133 17.7666 1.54232 17.2631 2.0002L12.8346 6.02502ZM12 4.70622L7.83553 0.921295C7.82194 0.908952 7.80757 0.897763 7.79255 0.887725C7.79249 0.887688 7.7926 0.887761 7.79255 0.887725C7.64711 0.790656 7.44122 0.80146 7.30939 0.920616C7.23645 0.986601 7.19998 1.07305 7.19998 1.15949C7.19998 1.24572 7.23621 1.33182 7.30864 1.39769L11.7365 5.42204C11.8062 5.48554 11.9011 5.52118 12 5.52118C12.0988 5.52118 12.1936 5.48544 12.2634 5.42204L16.6914 1.39771C16.8364 1.26586 16.8362 1.05238 16.6907 0.920752C16.5589 0.801621 16.3532 0.790672 16.2077 0.887649C16.2077 0.887688 16.2078 0.88761 16.2077 0.887649C16.1926 0.897712 16.178 0.909049 16.1644 0.921432L12 4.70622Z" fill="#12A221"></path>
<path d="M12.2634 79.0785L16.6914 75.0542C16.8364 74.9223 16.8362 74.7089 16.6907 74.5772C16.5452 74.4457 16.3095 74.4461 16.1644 74.5779L12 78.3627L7.83553 74.5778C7.69041 74.4459 7.45489 74.4456 7.30939 74.5771C7.23645 74.6431 7.19998 74.7295 7.19998 74.816C7.19998 74.9022 7.23621 74.9883 7.30864 75.0542L11.7365 79.0785C11.8062 79.142 11.9011 79.1777 12 79.1777C12.0988 79.1777 12.1936 79.1419 12.2634 79.0785Z" fill="#12A221"></path>
<path fill-rule="evenodd" clip-rule="evenodd" d="M12.8346 79.6815C12.6036 79.8912 12.3026 80 12 80C11.6985 80 11.3967 79.892 11.1647 79.6809C11.1646 79.6808 11.1648 79.681 11.1647 79.6809L6.73712 75.6568C6.49464 75.4363 6.35999 75.1322 6.35999 74.816C6.35999 74.4987 6.4954 74.1938 6.73928 73.9732C7.20728 73.5502 7.94028 73.5511 8.40695 73.9751L12 77.2406L15.5929 73.9753C16.0596 73.5512 16.7926 73.55 17.2606 73.9731C17.7652 74.4296 17.7666 75.1988 17.2631 75.6567L12.8346 79.6815ZM12 78.3627L7.83553 74.5778C7.82194 74.5654 7.80757 74.5543 7.79255 74.5442C7.79249 74.5442 7.7926 74.5443 7.79255 74.5442C7.64711 74.4471 7.44122 74.458 7.30939 74.5771C7.23645 74.6431 7.19998 74.7295 7.19998 74.816C7.19998 74.9022 7.23621 74.9883 7.30864 75.0542L11.7365 79.0785C11.8062 79.142 11.9011 79.1777 12 79.1777C12.0988 79.1777 12.1936 79.1419 12.2634 79.0785L16.6914 75.0542C16.8364 74.9223 16.8362 74.7089 16.6907 74.5772C16.5589 74.4581 16.3532 74.4472 16.2077 74.5441C16.2077 74.5442 16.2078 74.5441 16.2077 74.5441C16.1926 74.5542 16.178 74.5655 16.1644 74.5779L12 78.3627Z" fill="#12A221"></path>
</svg>
