<svg xmlns="http://www.w3.org/2000/svg" width="24" height="80" fill="none"><path fill="#282828" d="M21.6 44.288a9.3 9.3 0 0 1-2.812 6.645A9.7 9.7 0 0 1 12 53.686a9.7 9.7 0 0 1-6.788-2.753A9.3 9.3 0 0 1 2.4 44.288V30.19a9.3 9.3 0 0 1 2.812-6.645A9.7 9.7 0 0 1 12 20.793c2.546 0 4.988.99 6.788 2.753A9.3 9.3 0 0 1 21.6 30.19zM12 18.444a12.13 12.13 0 0 0-8.485 3.44A11.62 11.62 0 0 0 0 30.191v14.097c0 3.116 1.264 6.104 3.515 8.307A12.13 12.13 0 0 0 12 56.035c3.183 0 6.235-1.237 8.485-3.44A11.62 11.62 0 0 0 24 44.288V30.19c0-3.116-1.264-6.104-3.515-8.307A12.13 12.13 0 0 0 12 18.444"/><path fill="#12A221" d="M12.849 25.836a1.21 1.21 0 0 0-.849-.344c-.318 0-.623.124-.848.344s-.352.52-.352.83v4.7c0 .311.127.61.351.83.226.22.53.344.849.344s.624-.123.849-.344.351-.519.351-.83v-4.7c0-.31-.126-.61-.351-.83"/><path fill="#282828" d="m12.263 72.03 4.428-4.024a.315.315 0 0 0 0-.477.4.4 0 0 0-.527 0L12 71.315 7.836 67.53a.4.4 0 0 0-.527 0 .32.32 0 0 0-.109.239.32.32 0 0 0 .109.238l4.427 4.024c.07.064.165.1.264.1a.4.4 0 0 0 .263-.1"/><path fill="#282828" fill-rule="evenodd" d="M12.835 72.633c-.231.21-.532.319-.835.319a1.24 1.24 0 0 1-.835-.32l-4.428-4.024a1.14 1.14 0 0 1-.377-.84c0-.318.135-.623.38-.843a1.253 1.253 0 0 1 1.667.002L12 70.192l3.593-3.265a1.253 1.253 0 0 1 1.668-.002c.504.456.506 1.225.002 1.683zM12 71.314 7.836 67.53l-.043-.033a.4.4 0 0 0-.484.033.32.32 0 0 0-.109.239.32.32 0 0 0 .109.238l4.427 4.024c.07.064.165.1.264.1a.4.4 0 0 0 .263-.1l4.428-4.024a.315.315 0 0 0 0-.477.4.4 0 0 0-.483-.033.4.4 0 0 0-.044.034z" clip-rule="evenodd"/><path fill="#12A221" d="m12.263 5.422 4.428-4.024a.316.316 0 0 0 0-.477.4.4 0 0 0-.527 0L12 4.706 7.836.921a.4.4 0 0 0-.527 0 .32.32 0 0 0-.109.238c0 .087.036.173.109.239l4.427 4.024c.07.064.165.1.264.1a.4.4 0 0 0 .263-.1"/><path fill="#12A221" fill-rule="evenodd" d="M12.835 6.025c-.231.21-.532.318-.835.318a1.24 1.24 0 0 1-.835-.319L6.737 2a1.14 1.14 0 0 1-.377-.84c0-.318.135-.623.38-.843a1.253 1.253 0 0 1 1.667.002L12 3.584 15.593.32A1.253 1.253 0 0 1 17.26.317c.504.456.506 1.225.002 1.683zM12 4.706 7.836.921 7.793.888a.4.4 0 0 0-.484.033.32.32 0 0 0-.109.238c0 .087.036.173.109.239l4.427 4.024c.07.064.165.1.264.1a.4.4 0 0 0 .263-.1l4.428-4.024a.316.316 0 0 0 0-.477.4.4 0 0 0-.483-.033.4.4 0 0 0-.044.033z" clip-rule="evenodd"/><path fill="#12A221" d="m12.263 79.079 4.428-4.025a.316.316 0 0 0 0-.477.4.4 0 0 0-.527 0L12 78.364l-4.164-3.785a.4.4 0 0 0-.527 0 .32.32 0 0 0-.109.238c0 .086.036.172.109.238l4.427 4.025c.07.063.165.099.264.099a.4.4 0 0 0 .263-.1"/><path fill="#12A221" fill-rule="evenodd" d="M12.835 79.682c-.231.21-.532.318-.835.318a1.24 1.24 0 0 1-.835-.32l-4.428-4.023a1.14 1.14 0 0 1-.377-.841c0-.317.135-.622.38-.843a1.253 1.253 0 0 1 1.667.002L12 77.241l3.593-3.266a1.253 1.253 0 0 1 1.668-.002c.504.457.506 1.226.002 1.684zM12 78.362l-4.164-3.784a.4.4 0 0 0-.043-.034.4.4 0 0 0-.484.033.32.32 0 0 0-.109.239c0 .086.036.172.109.238l4.427 4.025c.07.063.165.099.264.099a.4.4 0 0 0 .263-.1l4.428-4.024a.316.316 0 0 0 0-.477.4.4 0 0 0-.483-.033.4.4 0 0 0-.044.034z" clip-rule="evenodd"/></svg>