<svg width="32" height="40" viewBox="0 0 32 40" fill="none" xmlns="http://www.w3.org/2000/svg">
<path d="M8.64665 33.9092C10.8163 37.6661 14.8594 40 19.1978 40C25.9163 40 31.3821 34.5342 31.3821 27.8157V18.2759C31.3821 16.5646 29.9899 15.1724 28.2786 15.1724C27.5972 15.1724 26.9665 15.3931 26.454 15.7669C26.1055 14.4344 24.8913 13.4483 23.451 13.4483C22.7305 13.4483 22.0664 13.6952 21.5391 14.1088C21.1041 12.9199 19.9613 12.069 18.6234 12.069C17.986 12.069 17.3927 12.2622 16.8994 12.5931V6.55174C16.8994 4.84049 15.5072 3.4483 13.7959 3.4483C12.0846 3.4483 10.6924 4.84049 10.6924 6.55174V23.005C10.6924 23.2166 10.5684 23.4109 10.3766 23.5002C10.1183 23.6203 9.81602 23.5249 9.67352 23.2781L7.60415 19.6938C6.36829 17.5533 3.62141 16.8172 1.48071 18.0531C1.08188 18.2834 0.796569 18.6552 0.67735 19.1001C0.558209 19.545 0.619459 20.0096 0.849772 20.4085L8.64665 33.9092ZM2.00985 19.4571C2.02368 19.4056 2.0629 19.3098 2.17055 19.2477C2.64876 18.9716 3.17938 18.8306 3.71712 18.8306C3.98665 18.8306 4.25805 18.866 4.52532 18.9377C5.32602 19.1522 5.99524 19.6657 6.40969 20.3836L8.47907 23.9678C8.98149 24.8381 10.0475 25.1746 10.9585 24.751C11.6349 24.4364 12.0719 23.7511 12.0719 23.0052V6.55174C12.0719 5.60104 12.8453 4.8276 13.796 4.8276C14.7467 4.8276 15.5202 5.60104 15.5202 6.55174V19.3103C15.5202 19.6912 15.8289 20 16.2099 20C16.5908 20 16.8995 19.6913 16.8995 19.3103V15.1724C16.8995 14.2217 17.673 13.4483 18.6237 13.4483C19.5744 13.4483 20.3478 14.2217 20.3478 15.1724V19.3103C20.3478 19.6912 20.6566 20 21.0375 20C21.4184 20 21.7272 19.6913 21.7272 19.3103V16.5517C21.7272 15.601 22.5006 14.8276 23.4513 14.8276C24.402 14.8276 25.1755 15.601 25.1755 16.5517V19.6552C25.1755 20.036 25.4842 20.3449 25.8652 20.3449C26.246 20.3449 26.5549 20.0361 26.5549 19.6552V18.2759C26.5549 17.3252 27.3283 16.5517 28.279 16.5517C29.2297 16.5517 30.0031 17.3252 30.0031 18.2759V27.8157C30.0031 33.7736 25.156 38.6207 19.1981 38.6207C15.3507 38.6207 11.7655 36.551 9.84134 33.2194L2.0443 19.7188C1.98212 19.6111 1.99602 19.5085 2.00985 19.4571Z" fill="#282828"></path>
<path d="M18.4943 10.1249C18.6045 10.1901 18.7253 10.221 18.8447 10.221C19.0805 10.221 19.3102 10.1 19.439 9.88227C20.0334 8.87703 20.3476 7.72531 20.3476 6.55172C20.3476 2.93906 17.4085 0 13.7959 0C10.1832 0 7.24414 2.93906 7.24414 6.55172C7.24414 7.72086 7.55602 8.86867 8.14609 9.87109C8.33937 10.1994 8.76219 10.3088 9.09023 10.1155C9.41851 9.92234 9.52789 9.49961 9.33469 9.17141C8.86938 8.38086 8.62336 7.475 8.62336 6.55172C8.62336 3.69961 10.9437 1.3793 13.7958 1.3793C16.6479 1.3793 18.9682 3.69961 18.9682 6.55172C18.9682 7.47844 18.7204 8.38742 18.2516 9.18023C18.0578 9.50813 18.1665 9.93102 18.4943 10.1249Z" fill="#12A221"></path>
<path d="M25.865 12.4138C26.2458 12.4138 26.5546 12.1051 26.5546 11.7241V2.35461L28.6532 4.45313C28.7879 4.58781 28.9644 4.65516 29.1409 4.65516C29.3174 4.65516 29.4939 4.58781 29.6286 4.45313C29.8979 4.18383 29.8979 3.74719 29.6286 3.47781L26.3526 0.202034C26.0833 -0.0672632 25.6467 -0.0672632 25.3773 0.202034L22.1014 3.47789C21.8321 3.74719 21.8321 4.18383 22.1014 4.45321C22.3707 4.7225 22.8074 4.7225 23.0768 4.45321L25.1754 2.35469V11.7242C25.1753 12.105 25.484 12.4138 25.865 12.4138Z" fill="#12A221"></path>
</svg>
