<svg width="130" height="130" viewBox="0 0 130 130" fill="none" xmlns="http://www.w3.org/2000/svg">
<path d="M65 0L9 32.5C11.3579 101.045 47.807 125.568 65 130V0Z" fill="#12A121"></path>
<path d="M65 0L121 32.5C118.642 101.045 82.193 125.568 65 130V0Z" fill="#12A121"></path>
<path d="M54.0996 66.1252H43.7495V46.0001H53.5534C55.4509 46.0001 56.9651 46.4505 58.0959 47.3513C59.2459 48.233 59.8209 49.4788 59.8209 51.0889C59.8209 52.0089 59.5909 52.8139 59.1309 53.5039C58.6901 54.1939 58.1343 54.6922 57.4634 54.9989C58.4601 55.2289 59.3418 55.8135 60.1084 56.7527C60.8943 57.711 61.2872 58.9089 61.2872 60.3464C61.2872 62.0715 60.6259 63.4706 59.3034 64.544C58.0193 65.5982 56.2847 66.1252 54.0996 66.1252ZM48.9246 57.5289V61.8127H53.0934C53.8792 61.8127 54.4926 61.6306 54.9334 61.2665C55.3934 60.8831 55.6234 60.356 55.6234 59.6852C55.6234 59.0143 55.3934 58.4873 54.9334 58.1039C54.4734 57.7206 53.86 57.5289 53.0934 57.5289H48.9246ZM48.9246 50.1976V53.7051H52.7771C53.4096 53.7051 53.908 53.5518 54.2721 53.2451C54.6555 52.9385 54.8471 52.5168 54.8471 51.9801C54.8471 51.4243 54.6555 50.993 54.2721 50.6864C53.908 50.3605 53.4096 50.1976 52.7771 50.1976H48.9246ZM71.3186 66.5277C68.2135 66.5277 65.6164 65.809 63.5272 64.3715V59.0814C64.3323 59.8289 65.4823 60.4806 66.9773 61.0365C68.4148 61.5731 69.7948 61.8415 71.1173 61.8415C73.1682 61.8415 74.1936 61.3144 74.1936 60.2602C74.1936 59.8385 73.9348 59.4456 73.4173 59.0814C73.3023 58.9856 72.8711 58.8131 72.1236 58.5639L70.3123 58.0177L68.846 57.5864L67.5235 57.0689C66.9294 56.8389 66.4885 56.6281 66.201 56.4364C65.166 55.6697 64.5143 55.0564 64.246 54.5964C63.7668 53.6764 63.5272 52.6893 63.5272 51.6351C63.5272 49.7184 64.2268 48.233 65.626 47.1788C67.0444 46.1247 68.9802 45.5976 71.4336 45.5976C73.8869 45.5976 76.1582 46.1534 78.2474 47.2651V52.2389C77.3465 51.683 76.2828 51.223 75.0561 50.8589C73.7911 50.4755 72.6027 50.2839 71.4911 50.2839C69.7277 50.2839 68.846 50.7247 68.846 51.6064C68.846 51.9897 69.124 52.2964 69.6798 52.5264L70.5998 52.8426C70.8106 52.9193 71.2611 53.0535 71.9511 53.2451C72.6411 53.4368 73.1107 53.571 73.3598 53.6476C75.2765 54.2801 76.7907 55.0756 77.9024 56.0339C78.9949 56.9731 79.5411 58.3148 79.5411 60.0589C79.5411 62.014 78.7745 63.5856 77.2411 64.774C75.7269 65.9432 73.7528 66.5277 71.3186 66.5277ZM87.785 66.1252H82.61V46.0001H87.785V66.1252Z" fill="white"></path>
</svg>
