<svg width="18" height="20" viewBox="0 0 18 20" fill="none" xmlns="http://www.w3.org/2000/svg">
<path d="M14.4841 1.78334L9.26329 0.0425023C9.09235 -0.0144319 8.90757 -0.0144319 8.73663 0.0425023L3.51579 1.78334C2.68572 2.05907 1.96364 2.58938 1.45216 3.29893C0.940688 4.00847 0.665825 4.86116 0.666628 5.73584V10C0.666628 16.3025 8.33329 19.7833 8.66163 19.9283C8.76814 19.9757 8.8834 20.0001 8.99996 20.0001C9.11652 20.0001 9.23178 19.9757 9.33829 19.9283C9.66663 19.7833 17.3333 16.3025 17.3333 10V5.73584C17.3341 4.86116 17.0592 4.00847 16.5478 3.29893C16.0363 2.58938 15.3142 2.05907 14.4841 1.78334ZM12.9316 8.0975L9.37163 11.6575C9.22595 11.8042 9.05258 11.9204 8.86161 11.9995C8.67063 12.0786 8.46584 12.119 8.25913 12.1183H8.23163C8.0207 12.1151 7.81262 12.0691 7.61998 11.9832C7.42733 11.8973 7.25411 11.7731 7.11079 11.6183L5.18913 9.61834C5.1059 9.54112 5.03934 9.44772 4.99351 9.34385C4.94768 9.23999 4.92355 9.12785 4.92261 9.01433C4.92167 8.90081 4.94394 8.78829 4.98805 8.68368C5.03215 8.57907 5.09717 8.48458 5.1791 8.406C5.26104 8.32742 5.35816 8.26641 5.46452 8.22671C5.57088 8.18702 5.68423 8.16947 5.79762 8.17515C5.911 8.18083 6.02203 8.20962 6.12389 8.25975C6.22575 8.30988 6.31629 8.38029 6.38996 8.46667L8.25996 10.4167L11.75 6.91667C11.9071 6.76487 12.1176 6.68088 12.3361 6.68278C12.5546 6.68467 12.7636 6.77231 12.9181 6.92682C13.0726 7.08133 13.1603 7.29034 13.1622 7.50884C13.1641 7.72733 13.0801 7.93783 12.9283 8.095L12.9316 8.0975Z" fill="#12A221"></path>
</svg>
