<svg width="70" height="60" viewBox="0 0 70 60" fill="none" xmlns="http://www.w3.org/2000/svg">
<path d="M47.4541 17.3091C51.067 17.3091 54.1241 15.0141 55.3052 11.8628H67.3251C68.7494 11.8628 70 10.6297 70 9.08829C70 7.54689 68.7494 6.34803 67.3251 6.34803H55.3052C54.1588 3.16247 51.067 0.833252 47.4541 0.833252C43.8412 0.833252 40.7146 3.16247 39.5682 6.34803H2.77916C1.21588 6.34803 0 7.54689 0 9.08829C0 10.6297 1.21588 11.8628 2.77916 11.8628H39.603C40.7494 15.0141 43.8412 17.3091 47.4541 17.3091ZM47.4541 13.0959C45.1613 13.0959 43.3896 11.3148 43.3896 9.05404C43.3896 6.79332 45.1613 5.04641 47.4541 5.04641C49.7469 5.04641 51.5186 6.79332 51.5186 9.05404C51.5186 11.3148 49.7469 13.0959 47.4541 13.0959ZM2.6402 27.2425C1.21588 27.2425 0 28.4756 0 30.017C0 31.5584 1.21588 32.7573 2.6402 32.7573H15.0769C16.2233 35.9771 19.3151 38.2721 22.928 38.2721C26.5409 38.2721 29.6328 35.9771 30.8139 32.7573H67.1861C68.7494 32.7573 70 31.5584 70 30.017C70 28.4756 68.7494 27.2425 67.1861 27.2425H30.7792C29.6328 24.0912 26.5409 21.7963 22.928 21.7963C19.3151 21.7963 16.2233 24.0912 15.0769 27.2425H2.6402ZM22.928 34.0247C20.67 34.0247 18.8635 32.2435 18.8635 30.017C18.8635 27.7563 20.67 26.0094 22.928 26.0094C25.2208 26.0094 26.9926 27.7563 26.9926 30.017C26.9926 32.2435 25.2208 34.0247 22.928 34.0247ZM47.4541 59.1666C51.067 59.1666 54.1588 56.8716 55.3052 53.6861H67.3251C68.7494 53.6861 70 52.4872 70 50.9458C70 49.4044 68.7494 48.1713 67.3251 48.1713H55.3052C54.1588 44.9857 51.067 42.725 47.4541 42.725C43.8412 42.725 40.7494 44.9857 39.603 48.1713H2.77916C1.21588 48.1713 0 49.4044 0 50.9458C0 52.4872 1.21588 53.6861 2.77916 53.6861H39.5682C40.7494 56.8716 43.8412 59.1666 47.4541 59.1666ZM47.4541 54.9534C45.1613 54.9534 43.3896 53.1723 43.3896 50.9458C43.3896 48.6508 45.1613 46.9382 47.4541 46.9382C49.7469 46.9382 51.5186 48.6508 51.5186 50.9458C51.5186 53.1723 49.7469 54.9534 47.4541 54.9534Z" fill="#12A221"></path>
</svg>
