<svg xmlns="http://www.w3.org/2000/svg" width="59" height="70" fill="none"><path fill="#12A221" d="M37.504 40.57a1.11 1.11 0 0 0 1.105-.983l2.485-21.775a1.14 1.14 0 0 0-.232-.818 1.16 1.16 0 0 0-.74-.409l-25.023-2.86-2.74 23.972 25.023 2.861q.06.014.122.012"/><path fill="#12A221" d="M58.284 30.262a1.14 1.14 0 0 0-.895-.674l-15.223-1.734-1.37 11.986a3.26 3.26 0 0 1-1.47 2.398L27.849 50.5l26.802 3.06q.06.014.121.011a1.1 1.1 0 0 0 1.005-1.557l-5.015-11.037 7.38-9.611a1.11 1.11 0 0 0 .143-1.105"/><path fill="#12A221" d="m24.059 41.265-.873 7.59a1.115 1.115 0 0 0 1.094 1.237c.233-.003.46-.076.652-.21l10.208-7.346zM10.504 13.183a7.468 7.468 0 0 1-4.065-1.16L.008 68.277a1.06 1.06 0 0 0 .231.806 1.1 1.1 0 0 0 .74.42L5.334 70h.133a1.1 1.1 0 0 0 1.094-.972l6.43-56.265c-.8.28-1.64.422-2.486.42M9.878 10.943q.311.036.625.036a5.49 5.49 0 1 0-.625-.036"/></svg>