<svg width="59" height="70" viewBox="0 0 59 70" fill="none" xmlns="http://www.w3.org/2000/svg">
<path d="M37.5037 40.5696C37.7563 40.5683 38.0013 40.4828 38.1997 40.3265C38.4283 40.1434 38.5753 39.8773 38.6085 39.5863L41.0942 17.8117C41.1256 17.5194 41.0424 17.2264 40.8622 16.9942C40.6756 16.7698 40.4113 16.6238 40.122 16.5854L15.0994 13.7241L12.3596 37.6972L37.3822 40.5585C37.4221 40.5672 37.4629 40.5709 37.5037 40.5696Z" fill="#12A221"></path>
<path d="M58.2841 30.2621C58.2058 30.0821 58.0823 29.9254 57.9255 29.8073C57.7686 29.6892 57.5839 29.6138 57.3893 29.5882L42.1658 27.8538L40.7959 39.8403C40.7451 40.3241 40.5868 40.7905 40.3326 41.2052C40.0784 41.62 39.7347 41.9727 39.3266 42.2376L27.8483 50.5011L54.6495 53.5613C54.6894 53.57 54.7302 53.5737 54.771 53.5724C54.9558 53.5733 55.1378 53.5276 55.3002 53.4396C55.4627 53.3517 55.6003 53.2242 55.7005 53.069C55.8007 52.9137 55.8601 52.7358 55.8734 52.5515C55.8867 52.3673 55.8533 52.1826 55.7764 52.0147L50.7608 40.9782L58.1405 31.3669C58.2598 31.2118 58.3359 31.0279 58.3611 30.8338C58.3863 30.6398 58.3598 30.4426 58.2841 30.2621Z" fill="#12A221"></path>
<path d="M24.059 41.2654L23.1862 48.855C23.1691 49.0096 23.1845 49.1661 23.2315 49.3144C23.2785 49.4626 23.3559 49.5994 23.459 49.716C23.562 49.8325 23.6882 49.9262 23.8296 49.991C23.971 50.0558 24.1244 50.0904 24.2799 50.0923C24.5132 50.0888 24.7402 50.0157 24.9317 49.8824L35.1396 42.5358L24.059 41.2654Z" fill="#12A221"></path>
<path d="M10.5036 13.1827C10.2084 13.1842 9.91339 13.1695 9.61983 13.1385C8.48807 13.014 7.39977 12.6323 6.43814 12.0227L0.00849367 68.2766C-0.00973119 68.4197 0.00144356 68.5651 0.0413346 68.7038C0.0812256 68.8424 0.148994 68.9715 0.240491 69.0831C0.329952 69.1986 0.441442 69.2951 0.5685 69.3672C0.695558 69.4392 0.835657 69.4854 0.980674 69.5029L5.33339 70H5.46596C5.73584 70.0006 5.99648 69.9018 6.19819 69.7225C6.3999 69.5432 6.52857 69.2959 6.55967 69.0278L12.9893 12.7629C12.1907 13.0433 11.35 13.1853 10.5036 13.1827Z" fill="#12A221"></path>
<path d="M9.87771 10.943C10.0854 10.9671 10.2943 10.979 10.5034 10.9786C11.9321 10.9781 13.3044 10.4206 14.3286 9.42457C15.3529 8.42852 15.9484 7.07237 15.9887 5.64423C16.0291 4.2161 15.511 2.82851 14.5446 1.77624C13.5782 0.723973 12.2396 0.089948 10.8132 0.00885664C9.38679 -0.0722348 7.98497 0.405997 6.90554 1.34196C5.8261 2.27792 5.15411 3.59785 5.03232 5.02136C4.91053 6.44486 5.34854 7.85977 6.2533 8.96549C7.15805 10.0712 8.45826 10.7806 9.87771 10.943Z" fill="#12A221"></path>
</svg>
