<svg width="20" height="20" viewBox="0 0 20 20" fill="none" xmlns="http://www.w3.org/2000/svg">
<mask id="path-1-inside-1_577_3344" fill="white">
<path fill-rule="evenodd" clip-rule="evenodd" d="M4.47587 15.2453C5.8079 17.4458 7.63923 19.0301 9.919 19.9543C9.99305 19.9846 10.0723 20.0001 10.1523 20C10.2329 20.0001 10.3128 19.9846 10.3874 19.9543C12.6654 19.0311 14.4951 17.4489 15.8249 15.2518C17.1218 13.1121 17.954 10.3662 18.2994 7.09081C18.3084 7.00649 18.3001 6.92123 18.2751 6.84021C18.2501 6.75919 18.2088 6.68412 18.1538 6.61959C18.0988 6.55505 18.0312 6.50241 17.9551 6.46486C17.8791 6.42731 17.7962 6.40565 17.7115 6.4012C17.3186 6.37857 16.9366 6.2638 16.5962 6.06618C16.2559 5.86855 15.9668 5.59361 15.7524 5.26359C15.538 4.93356 15.4042 4.55771 15.362 4.16643C15.3197 3.77514 15.3701 3.3794 15.5091 3.0112C15.5656 2.86277 15.5634 2.6984 15.503 2.55151C15.4426 2.40463 15.3285 2.28628 15.1839 2.22054L10.4113 0.0558111C10.3303 0.0190287 10.2423 0 10.1532 0C10.0642 0 9.9762 0.0190287 9.89513 0.0558111L4.93329 2.30562C4.79181 2.37027 4.67952 2.48536 4.61838 2.62838C4.55723 2.77141 4.55161 2.93211 4.60263 3.07905C4.72356 3.43149 4.76457 3.80642 4.72269 4.17667C4.68081 4.54692 4.55709 4.90322 4.36048 5.21974C4.16388 5.53626 3.89932 5.80508 3.58598 6.00671C3.27264 6.20835 2.91837 6.33775 2.54884 6.38554C2.38639 6.40579 2.23832 6.48883 2.13635 6.6169C2.03437 6.74497 1.9866 6.90788 2.00325 7.07074C2.3486 10.352 3.17895 13.1022 4.47587 15.2453Z"></path>
</mask>
<path d="M4.47587 15.2453L3.19256 16.0219L3.19265 16.022L4.47587 15.2453ZM9.919 19.9543L10.487 18.566L10.4825 18.5642L9.919 19.9543ZM10.1523 20L10.1544 18.5L10.1501 18.5L10.1523 20ZM10.3874 19.9543L9.82406 18.5641L9.82318 18.5644L10.3874 19.9543ZM15.8249 15.2518L14.5422 14.4744L14.5417 14.4751L15.8249 15.2518ZM18.2994 7.09081L16.8079 6.9314L16.8077 6.93353L18.2994 7.09081ZM17.9551 6.46486L18.6193 5.11991L17.9551 6.46486ZM17.7115 6.4012L17.6253 7.89874L17.6328 7.89914L17.7115 6.4012ZM15.5091 3.0112L14.1072 2.47763L14.1057 2.48147L15.5091 3.0112ZM15.1839 2.22054L15.8049 0.855091L15.8035 0.85449L15.1839 2.22054ZM10.4113 0.0558111L9.79162 1.42181L9.79173 1.42186L10.4113 0.0558111ZM9.89513 0.0558111L10.5146 1.42194L10.5149 1.42181L9.89513 0.0558111ZM4.93329 2.30562L4.31386 0.939483L4.30985 0.941314L4.93329 2.30562ZM4.60263 3.07905L6.02143 2.59221L6.01966 2.58711L4.60263 3.07905ZM2.54884 6.38554L2.73435 7.87404L2.74123 7.87315L2.54884 6.38554ZM2.00325 7.07074L0.511027 7.22334L0.511491 7.22774L2.00325 7.07074ZM3.19265 16.022C4.68401 18.4858 6.76166 20.2929 9.35544 21.3444L10.4825 18.5642C8.5168 17.7673 6.93179 16.4058 5.75909 14.4685L3.19265 16.022ZM9.35098 21.3426C9.60602 21.4469 9.879 21.5004 10.1546 21.5L10.1501 18.5C10.2656 18.4998 10.3801 18.5222 10.487 18.566L9.35098 21.3426ZM10.1503 21.5C10.425 21.5004 10.6972 21.4474 10.9517 21.3441L9.82318 18.5644C9.92836 18.5217 10.0408 18.4998 10.1544 18.5L10.1503 21.5ZM10.9508 21.3444C13.5426 20.2941 15.6188 18.4892 17.1082 16.0286L14.5417 14.4751C13.3713 16.4086 11.7881 17.7681 9.82406 18.5641L10.9508 21.3444ZM17.1077 16.0293C18.5493 13.6508 19.4296 10.6765 19.7911 7.2481L16.8077 6.93353C16.4784 10.056 15.6943 12.5734 14.5422 14.4744L17.1077 16.0293ZM19.7909 7.25022C19.8216 6.96326 19.7934 6.67306 19.7082 6.39733L16.842 7.28308C16.8068 7.16939 16.7952 7.04973 16.8079 6.93141L19.7909 7.25022ZM19.7082 6.39733C19.623 6.12159 19.4825 5.86612 19.2953 5.6465L17.0122 7.59268C16.935 7.50212 16.8771 7.39678 16.842 7.28308L19.7082 6.39733ZM19.2953 5.6465C19.1081 5.42688 18.8781 5.2477 18.6193 5.11991L17.291 7.80981C17.1843 7.75711 17.0894 7.68323 17.0122 7.59268L19.2953 5.6465ZM18.6193 5.11991C18.3605 4.99213 18.0785 4.91842 17.7903 4.90327L17.6328 7.89914C17.514 7.89289 17.3977 7.8625 17.291 7.80981L18.6193 5.11991ZM17.7978 4.90369C17.6398 4.89459 17.4863 4.84845 17.3494 4.76901L15.843 7.36335C16.3869 7.67916 16.9974 7.86256 17.6253 7.89872L17.7978 4.90369ZM17.3494 4.76901C17.2126 4.68956 17.0964 4.57904 17.0102 4.44637L14.4945 6.0808C14.8372 6.60818 15.2991 7.04754 15.843 7.36335L17.3494 4.76901ZM17.0102 4.44637C16.924 4.31371 16.8703 4.16262 16.8533 4.00533L13.8706 4.32753C13.9382 4.95281 14.1519 5.55341 14.4945 6.0808L17.0102 4.44637ZM16.8533 4.00533C16.8363 3.84804 16.8566 3.68895 16.9124 3.54094L14.1057 2.48147C13.8836 3.06986 13.8031 3.70225 13.8706 4.32753L16.8533 4.00533ZM16.911 3.54477C17.1032 3.03984 17.0957 2.48067 16.8903 1.98101L14.1157 3.12202C14.031 2.91613 14.028 2.6857 14.1072 2.47763L16.911 3.54477ZM16.8903 1.98101C16.6848 1.48135 16.2967 1.07874 15.8049 0.855092L14.563 3.58598C14.3603 3.49383 14.2004 3.32792 14.1157 3.12202L16.8903 1.98101ZM15.8035 0.85449L11.0309 -1.31024L9.79173 1.42186L14.5643 3.58659L15.8035 0.85449ZM11.0311 -1.31018C10.7553 -1.43528 10.456 -1.5 10.1532 -1.5V1.5C10.0285 1.5 9.9052 1.47334 9.79162 1.42181L11.0311 -1.31018ZM10.1532 -1.5C9.85044 -1.5 9.55115 -1.43528 9.2754 -1.31018L10.5149 1.42181C10.4013 1.47334 10.278 1.5 10.1532 1.5V-1.5ZM9.2757 -1.31032L4.31386 0.939489L5.55272 3.67174L10.5146 1.42194L9.2757 -1.31032ZM4.30985 0.941314C3.82882 1.16113 3.44704 1.55243 3.23914 2.03872L5.99761 3.21804C5.91201 3.41828 5.75481 3.57941 5.55673 3.66992L4.30985 0.941314ZM3.23914 2.03872C3.03123 2.52502 3.01214 3.07138 3.18559 3.571L6.01966 2.58711C6.09108 2.79284 6.08322 3.0178 5.99761 3.21804L3.23914 2.03872ZM3.18383 3.56589C3.23255 3.70788 3.24907 3.85892 3.2322 4.00807L6.21319 4.34527C6.28008 3.75393 6.21457 3.15511 6.02143 2.59222L3.18383 3.56589ZM3.2322 4.00807C3.21533 4.15723 3.16548 4.30077 3.08628 4.42828L5.63469 6.0112C5.94869 5.50567 6.1463 4.93661 6.21319 4.34527L3.2322 4.00807ZM3.08628 4.42828C3.00708 4.55579 2.9005 4.66409 2.77427 4.74532L4.3977 7.26811C4.89814 6.94607 5.32068 6.51673 5.63469 6.0112L3.08628 4.42828ZM2.77427 4.74532C2.64804 4.82655 2.50532 4.87868 2.35645 4.89793L2.74123 7.87315C3.33142 7.79682 3.89725 7.59015 4.3977 7.26811L2.77427 4.74532ZM2.36333 4.89705C1.8118 4.96579 1.30911 5.24775 0.962899 5.68255L3.30979 7.55126C3.16753 7.72992 2.96097 7.84578 2.73434 7.87402L2.36333 4.89705ZM0.962899 5.68255C0.61669 6.11735 0.454491 6.67042 0.511034 7.22333L3.49547 6.91814C3.5187 7.14533 3.45205 7.3726 3.30979 7.55126L0.962899 5.68255ZM0.511491 7.22774C0.872835 10.6609 1.75091 13.6396 3.19256 16.0219L5.75918 14.4687C4.607 12.5647 3.82437 10.043 3.49501 6.91373L0.511491 7.22774Z" fill="#282828" mask="url('#path-1-inside-1_577_3344')"></path>
<path d="M12 12.9866L11.8911 13.5575C11.0076 14.5192 10.2148 15.0001 9.51286 15.0001C8.93192 15.0001 8.64145 14.6911 8.64145 14.0731C8.64145 13.8644 8.68785 13.5206 8.78064 13.0418L9.19818 10.9055C9.31114 10.2998 9.36762 9.89672 9.36762 9.69619C9.36762 9.35242 9.23651 9.18054 8.97428 9.18054C8.79274 9.18054 8.46798 9.25216 8 9.39539L8.07262 9.01479L11.0318 8.03259L10.5719 9.99699L9.97882 13.0295C9.88603 13.5043 9.83964 13.8071 9.83964 13.9381C9.83964 14.2041 9.95865 14.3371 10.1967 14.3371C10.5961 14.3371 11.1972 13.8869 12 12.9866Z" fill="#282828"></path>
<circle cx="10" cy="5" r="1" fill="#282828"></circle>
</svg>
