<svg xmlns="http://www.w3.org/2000/svg" width="70" height="70" fill="none"><path fill="#12A221" fill-rule="evenodd" d="M70 33.307c0 15.024-12.607 27.474-27.853 27.474-4.605 0-8.985-1.162-12.832-3.126 1.937-2.85 3.089-6.253 3.089-9.877 0-1.08-.113-2.159-.31-3.21 3.314-1.162 6.88-1.826 10.024-1.826 6.683 0 13.029 2.324 17.268 5.81 3.65-4.04 5.869-9.352 5.869-15.245-.028-12.616-10.305-22.77-23.136-22.77-11.878 0-21.592 8.77-22.912 20.087a16.5 16.5 0 0 0-2.583-.554 13.6 13.6 0 0 0-2.134-.166c1.713-13.419 13.533-24.07 27.628-24.07C57.366 5.833 70 18.31 70 33.306m-18.42-5.7c0 5.783-4.07 10.376-9.461 10.376-5.363 0-9.463-4.593-9.463-10.375 0-5.45 4.184-10.182 9.462-10.182 5.307 0 9.463 4.731 9.463 10.182M14.59 61.834c8.017 0 14.576-6.626 14.576-14.737s-6.56-14.737-14.59-14.737C6.56 32.36 0 38.985 0 47.096s6.56 14.737 14.59 14.737m7.285-11.79H17.5v4.422a1.47 1.47 0 0 1-1.458 1.473h-2.917a1.47 1.47 0 0 1-1.458-1.474v-4.42H7.292a1.47 1.47 0 0 1-1.458-1.474v-2.947c0-.811.656-1.474 1.458-1.474h4.375v-4.421c0-.81.656-1.474 1.458-1.474h2.917a1.47 1.47 0 0 1 1.458 1.474v4.42h4.375a1.47 1.47 0 0 1 1.458 1.474v2.948a1.47 1.47 0 0 1-1.458 1.474" clip-rule="evenodd"/></svg>