<svg width="70" height="70" viewBox="0 0 70 70" fill="none" xmlns="http://www.w3.org/2000/svg">
<path fill-rule="evenodd" clip-rule="evenodd" d="M70 33.3073C70 48.3308 57.393 60.7813 42.1466 60.7813C37.5418 60.7813 33.1617 59.6193 29.315 57.6549C31.2524 54.8051 32.4036 51.402 32.4036 47.7775C32.4036 46.6984 32.2912 45.6194 32.0947 44.568C35.4079 43.406 38.9738 42.742 42.1185 42.742C48.8011 42.742 55.1468 45.0661 59.3865 48.5522C63.0367 44.5127 65.2548 39.2005 65.2548 33.3073C65.2268 20.6908 54.9502 10.5368 42.1185 10.5368C30.2415 10.5368 20.5266 19.3074 19.2069 30.6235C18.3645 30.3745 17.4941 30.1808 16.6237 30.0702C15.9218 29.9595 15.2198 29.9042 14.4898 29.9042C16.2025 16.4853 28.0234 5.83325 42.1185 5.83325C57.3649 5.83325 70 18.3114 70 33.3073ZM51.5808 27.6077C51.5808 33.3903 47.5095 37.9831 42.1185 37.9831C36.7556 37.9831 32.6563 33.3903 32.6563 27.6077C32.6563 22.1572 36.8399 17.426 42.1185 17.426C47.4253 17.426 51.5808 22.1572 51.5808 27.6077ZM14.5898 61.8328C22.6067 61.8328 29.166 55.2074 29.166 47.0961C29.166 38.9848 22.6067 32.3594 14.5763 32.3594C6.55933 32.3594 0 38.9848 0 47.0961C0 55.2074 6.55932 61.8328 14.5898 61.8328ZM21.8749 50.0435H17.5V54.4645C17.5 55.2751 16.8437 55.9382 16.0417 55.9382H13.1251C12.323 55.9382 11.6668 55.2751 11.6668 54.4645V50.0435H7.29187C6.4898 50.0435 5.83356 49.3804 5.83356 48.5699V45.6225C5.83356 44.812 6.4898 44.1488 7.29187 44.1488H11.6668V39.7278C11.6668 38.9173 12.323 38.2542 13.1251 38.2542H16.0417C16.8437 38.2542 17.5 38.9173 17.5 39.7278V44.1488H21.8749C22.677 44.1488 23.3332 44.812 23.3332 45.6225V48.5699C23.3332 49.3804 22.677 50.0435 21.8749 50.0435Z" fill="#12A221"></path>
</svg>
