<svg xmlns="http://www.w3.org/2000/svg" width="150" height="62" viewBox="0 0 100 62"><path fill="#0AF" d="M6.671 0 5.002 4.579H28.13L29.8 0zM4.168 6.867l-1.67 4.578h23.128l1.668-4.578zm-2.5 6.867L0 18.312h23.127l1.668-4.578z"/><path fill="#0A2896" d="M49.166 20.057v.096c1.057.389 2.067 1.068 2.596 1.505 1.634 1.359 2.356 3.154 2.356 5.483 0 3.835-2.02 6.6-5.337 7.474-1.01.29-2.066.389-4.038.389H34.698V6.955h8.892c1.827 0 3.077.097 4.182.388 3.221.873 5.336 3.106 5.336 6.648 0 1.892-.673 3.494-1.778 4.561a6.7 6.7 0 0 1-2.164 1.505m-8.892 2.96v7.376h3.846c1.152 0 2.21-.097 2.98-.825.769-.728 1.105-1.65 1.105-2.863 0-.922-.24-1.795-.721-2.426-.817-1.02-1.827-1.262-3.557-1.262zm-.049-4.853h3.125c.96 0 1.441 0 1.922-.146 1.299-.388 2.116-1.552 2.116-3.154 0-1.892-.865-2.718-2.116-3.105-.529-.146-1.057-.194-2.115-.194h-2.932zm22.256 16.84V11.66h-8.027V6.955H76.76l-1.586 4.706h-7.116v23.343zm16.008 0V6.955h18.074l-1.586 4.706h-10.96v6.212h4.47c3.606 0 5.48.874 6.779 1.99 1.01.873 2.74 2.814 2.74 6.649 0 3.784-1.78 5.87-3.27 6.938-1.73 1.213-3.556 1.553-7.258 1.553zm5.528-4.708H88.2c1.585 0 2.547-.388 3.22-1.262.336-.436.817-1.213.817-2.669s-.48-2.475-1.442-3.203c-.576-.436-1.346-.678-2.644-.678h-4.134z"/></svg>